<?xml version="1.0" encoding="UTF-8"?>
<svg version="1.1" xmlns="http://www.w3.org/2000/svg" width="267" height="267">
<path d="M0 0 C0.33 0.99 0.66 1.98 1 3 C7.27 3 13.54 3 20 3 C20 2.34 20 1.68 20 1 C20.66 1 21.32 1 22 1 C22 1.66 22 2.32 22 3 C25.96 3 29.92 3 34 3 C34 3.33 34 3.66 34 4 C30.04 4 26.08 4 22 4 C22 10.6 22 17.2 22 24 C28.27 24 34.54 24 41 24 C41 18.06 41 12.12 41 6 C41.66 6 42.32 6 43 6 C43 11.94 43 17.88 43 24 C49.27 24 55.54 24 62 24 C62 20.7 62 17.4 62 14 C62.99 14.495 62.99 14.495 64 15 C64 17.97 64 20.94 64 24 C68.95 24 73.9 24 79 24 C79 24.33 79 24.66 79 25 C74.05 25 69.1 25 64 25 C64 31.6 64 38.2 64 45 C70.27 45 76.54 45 83 45 C83 39.39 83 33.78 83 28 C83.66 28 84.32 28 85 28 C85 33.61 85 39.22 85 45 C90.61 45 96.22 45 102 45 C102 45.33 102 45.66 102 46 C96.39 46 90.78 46 85 46 C85 52.6 85 59.2 85 66 C91.27 66 97.54 66 104 66 C104 60.06 104 54.12 104 48 C104.66 48.33 105.32 48.66 106 49 C106 54.61 106 60.22 106 66 C109.63 66 113.26 66 117 66 C117 66.33 117 66.66 117 67 C113.37 67 109.74 67 106 67 C106 73.6 106 80.2 106 87 C112.27 87 118.54 87 125 87 C125.33 85.68 125.66 84.36 126 83 C127.00005304 86.00015912 127.11575585 87.97423756 127.09765625 91.10546875 C127.09443359 92.08837891 127.09121094 93.07128906 127.08789062 94.08398438 C127.07951172 95.10814453 127.07113281 96.13230469 127.0625 97.1875 C127.05798828 98.22326172 127.05347656 99.25902344 127.04882812 100.32617188 C127.0370401 102.88417266 127.02058515 105.44205733 127 108 C128.98 108 130.96 108 133 108 C133 108.33 133 108.66 133 109 C131.02 109 129.04 109 127 109 C127 115.6 127 122.2 127 129 C129.64 129 132.28 129 135 129 C135 129.33 135 129.66 135 130 C132.36 130 129.72 130 127 130 C127 136.6 127 143.2 127 150 C129.31 150 131.62 150 134 150 C134 150.33 134 150.66 134 151 C131.69 151 129.38 151 127 151 C127 157.6 127 164.2 127 171 C127.99 171.33 128.98 171.66 130 172 C129.01 172 128.02 172 127 172 C127.03480469 172.92232422 127.03480469 172.92232422 127.0703125 173.86328125 C127.08835937 174.67152344 127.10640625 175.47976562 127.125 176.3125 C127.14820313 177.11300781 127.17140625 177.91351563 127.1953125 178.73828125 C127 181 127 181 125 184 C125 180.04 125 176.08 125 172 C118.73 172 112.46 172 106 172 C106 178.6 106 185.2 106 192 C111.28 192 116.56 192 122 192 C122 192.33 122 192.66 122 193 C116.72 193 111.44 193 106 193 C106 199.6 106 206.2 106 213 C106.99 213.33 107.98 213.66 109 214 C108.01 214 107.02 214 106 214 C105.67 215.65 105.34 217.3 105 219 C104.67 219 104.34 219 104 219 C104 217.35 104 215.7 104 214 C98.06 214 92.12 214 86 214 C86.0309375 216.165625 86.0309375 216.165625 86.0625 218.375 C86.0700134 223.63437862 85.62178008 228.78148862 85 234 C86.32 234.33 87.64 234.66 89 235 C87.68 235 86.36 235 85 235 C85 236.32 85 237.64 85 239 C84.34 239 83.68 239 83 239 C83 237.68 83 236.36 83 235 C76.73 235 70.46 235 64 235 C64 240.61 64 246.22 64 252 C63.34 252.33 62.68 252.66 62 253 C62 247.06 62 241.12 62 235 C55.73 235 49.46 235 43 235 C43 241.6 43 248.2 43 255 C47.62 255 52.24 255 57 255 C57 255.33 57 255.66 57 256 C52.38 256 47.76 256 43 256 C43 257.65 43 259.3 43 261 C42.34 261 41.68 261 41 261 C41 259.35 41 257.7 41 256 C34.73 256 28.46 256 22 256 C22 259.3 22 262.6 22 266 C21.34 266 20.68 266 20 266 C20 262.7 20 259.4 20 256 C13.73 256 7.46 256 1 256 C1 259.63 1 263.26 1 267 C0.67 267 0.34 267 0 267 C0 263.37 0 259.74 0 256 C-6.6 256 -13.2 256 -20 256 C-20 259.3 -20 262.6 -20 266 C-20.33 266 -20.66 266 -21 266 C-21 262.7 -21 259.4 -21 256 C-27.6 256 -34.2 256 -41 256 C-41.33 257.32 -41.66 258.64 -42 260 C-42 258.68 -42 257.36 -42 256 C-45.96 256 -49.92 256 -54 256 C-54 255.67 -54 255.34 -54 255 C-50.04 255 -46.08 255 -42 255 C-42 248.4 -42 241.8 -42 235 C-48.6 235 -55.2 235 -62 235 C-62 240.28 -62 245.56 -62 251 C-62.33 251 -62.66 251 -63 251 C-63 245.72 -63 240.44 -63 235 C-69.6 235 -76.2 235 -83 235 C-83.33 235.66 -83.66 236.32 -84 237 C-84 236.34 -84 235.68 -84 235 C-84.66 234.67 -85.32 234.34 -86 234 C-85.34 234 -84.68 234 -84 234 C-84 227.4 -84 220.8 -84 214 C-90.93 214.33 -97.86 214.66 -105 215 C-106.22625047 212.54749907 -106.03425355 211.15689565 -105.87890625 208.4296875 C-105.83056641 207.53378906 -105.78222656 206.63789063 -105.73242188 205.71484375 C-105.67634766 204.77769531 -105.62027344 203.84054688 -105.5625 202.875 C-105.51029297 201.93011719 -105.45808594 200.98523438 -105.40429688 200.01171875 C-105.27443481 197.67420159 -105.13784835 195.33705979 -105 193 C-109.62 193 -114.24 193 -119 193 C-119 192.67 -119 192.34 -119 192 C-114.38 192 -109.76 192 -105 192 C-105 185.4 -105 178.8 -105 172 C-111.6 172 -118.2 172 -125 172 C-125.495 173.98 -125.495 173.98 -126 176 C-126.78653402 172.59698245 -127.08116649 169.62008956 -126.87890625 166.13671875 C-126.83056641 165.25048828 -126.78222656 164.36425781 -126.73242188 163.45117188 C-126.67634766 162.53916016 -126.62027344 161.62714844 -126.5625 160.6875 C-126.51029297 159.75615234 -126.45808594 158.82480469 -126.40429688 157.86523438 C-126.2751852 155.57643647 -126.14024585 153.28813814 -126 151 C-127.65 151 -129.3 151 -131 151 C-131 150.67 -131 150.34 -131 150 C-129.35 150 -127.7 150 -126 150 C-126 143.4 -126 136.8 -126 130 C-127.98 130 -129.96 130 -132 130 C-132 129.67 -132 129.34 -132 129 C-130.02 129 -128.04 129 -126 129 C-126 122.4 -126 115.8 -126 109 C-127.32 108.67 -128.64 108.34 -130 108 C-128.68 108 -127.36 108 -126 108 C-126 102.39 -126 96.78 -126 91 C-125.67 91 -125.34 91 -125 91 C-125 96.61 -125 102.22 -125 108 C-118.4 108 -111.8 108 -105 108 C-105 101.4 -105 94.8 -105 88 C-111.27 88 -117.54 88 -124 88 C-124 87.67 -124 87.34 -124 87 C-117.73 87 -111.46 87 -105 87 C-105 80.4 -105 73.8 -105 67 C-107.97 67 -110.94 67 -114 67 C-114 66.67 -114 66.34 -114 66 C-111.03 66 -108.06 66 -105 66 C-105 61.38 -105 56.76 -105 52 C-104.67 52 -104.34 52 -104 52 C-104 56.62 -104 61.24 -104 66 C-97.4 66 -90.8 66 -84 66 C-84 59.4 -84 52.8 -84 46 C-88.95 46 -93.9 46 -99 46 C-99 45.67 -99 45.34 -99 45 C-94.05 45 -89.1 45 -84 45 C-84 40.05 -84 35.1 -84 30 C-83.67 30 -83.34 30 -83 30 C-83 34.95 -83 39.9 -83 45 C-76.4 45 -69.8 45 -63 45 C-63 38.4 -63 31.8 -63 25 C-67.29 25 -71.58 25 -76 25 C-76 24.67 -76 24.34 -76 24 C-71.71 24 -67.42 24 -63 24 C-63 21.36 -63 18.72 -63 16 C-62.67 16 -62.34 16 -62 16 C-62 18.64 -62 21.28 -62 24 C-55.4 24 -48.8 24 -42 24 C-42 18.39 -42 12.78 -42 7 C-41.67 7 -41.34 7 -41 7 C-41 12.61 -41 18.22 -41 24 C-34.4 24 -27.8 24 -21 24 C-21 17.4 -21 10.8 -21 4 C-24.3 4 -27.6 4 -31 4 C-31 3.67 -31 3.34 -31 3 C-27.7 3 -24.4 3 -21 3 C-20.67 2.34 -20.34 1.68 -20 1 C-20 1.66 -20 2.32 -20 3 C-13.4 3 -6.8 3 0 3 C0 2.01 0 1.02 0 0 Z M-20 4 C-20 10.6 -20 17.2 -20 24 C-13.4 24 -6.8 24 0 24 C0 17.4 0 10.8 0 4 C-6.6 4 -13.2 4 -20 4 Z M1 4 C1 10.6 1 17.2 1 24 C7.27 24 13.54 24 20 24 C20 17.4 20 10.8 20 4 C13.73 4 7.46 4 1 4 Z M-62 25 C-62 31.6 -62 38.2 -62 45 C-55.4 45 -48.8 45 -42 45 C-42 38.4 -42 31.8 -42 25 C-48.6 25 -55.2 25 -62 25 Z M-41 25 C-41 31.6 -41 38.2 -41 45 C-34.4 45 -27.8 45 -21 45 C-21 38.4 -21 31.8 -21 25 C-27.6 25 -34.2 25 -41 25 Z M-20 25 C-20 31.6 -20 38.2 -20 45 C-13.4 45 -6.8 45 0 45 C0 38.4 0 31.8 0 25 C-6.6 25 -13.2 25 -20 25 Z M1 25 C1 31.6 1 38.2 1 45 C7.27 45 13.54 45 20 45 C20 38.4 20 31.8 20 25 C13.73 25 7.46 25 1 25 Z M22 25 C22 31.6 22 38.2 22 45 C28.27 45 34.54 45 41 45 C41 38.4 41 31.8 41 25 C34.73 25 28.46 25 22 25 Z M43 25 C43 31.6 43 38.2 43 45 C49.27 45 55.54 45 62 45 C62 38.4 62 31.8 62 25 C55.73 25 49.46 25 43 25 Z M-83 46 C-83 52.6 -83 59.2 -83 66 C-80.03 66 -77.06 66 -74 66 C-72.86103837 61.65507229 -73.06899529 57.61379215 -73.4375 53.1875 C-73.48970703 52.49462891 -73.54191406 51.80175781 -73.59570312 51.08789062 C-73.72439819 49.39145563 -73.86136184 47.69565137 -74 46 C-76.97 46 -79.94 46 -83 46 Z M43 46 C43 51.61 43 57.22 43 63 C49.27 62.67 55.54 62.34 62 62 C62 56.72 62 51.44 62 46 C55.73 46 49.46 46 43 46 Z M64 46 C64 51.28 64 56.56 64 62 C66.31 62.33 68.62 62.66 71 63 C71.33 63.99 71.66 64.98 72 66 C75.63 66 79.26 66 83 66 C83 59.4 83 52.8 83 46 C76.73 46 70.46 46 64 46 Z M-45 55 C-44 59 -44 59 -44 59 Z M-104 67 C-104 73.6 -104 80.2 -104 87 C-97.4 87 -90.8 87 -84 87 C-84 80.4 -84 73.8 -84 67 C-90.6 67 -97.2 67 -104 67 Z M-83 67 C-83 73.6 -83 80.2 -83 87 C-76.4 87 -69.8 87 -63 87 C-63 84.36 -63 81.72 -63 79 C-66.3 78.67 -69.6 78.34 -73 78 C-73.33 74.37 -73.66 70.74 -74 67 C-76.97 67 -79.94 67 -83 67 Z M73 67 C70.35308535 69.64691465 71.13977897 76.41985485 71 80 C71.1650027 82.42272251 71.51245739 84.61645833 72 87 C75.63 87 79.26 87 83 87 C83 80.4 83 73.8 83 67 C79.7 67 76.4 67 73 67 Z M85 67 C85 73.6 85 80.2 85 87 C91.27 87 97.54 87 104 87 C104 80.4 104 73.8 104 67 C97.73 67 91.46 67 85 67 Z M43 71 C43 72.98 43 74.96 43 77 C43.33 77 43.66 77 44 77 C44 75.02 44 73.04 44 71 C43.67 71 43.34 71 43 71 Z M-62 79 C-62 81.64 -62 84.28 -62 87 C-61.67 87 -61.34 87 -61 87 C-61 84.36 -61 81.72 -61 79 C-61.33 79 -61.66 79 -62 79 Z M-31 79 C-31 81.64 -31 84.28 -31 87 C-27.7 87 -24.4 87 -21 87 C-21 84.36 -21 81.72 -21 79 C-24.3 79 -27.6 79 -31 79 Z M-20 79 C-20 81.64 -20 84.28 -20 87 C-13.4 87 -6.8 87 0 87 C0 84.36 0 81.72 0 79 C-6.6 79 -13.2 79 -20 79 Z M1 79 C1 81.64 1 84.28 1 87 C7.27 87 13.54 87 20 87 C20 84.36 20 81.72 20 79 C13.73 79 7.46 79 1 79 Z M22 79 C22 81.64 22 84.28 22 87 C24.31 87 26.62 87 29 87 C29.33 84.36 29.66 81.72 30 79 C27.36 79 24.72 79 22 79 Z M-104 88 C-104 94.6 -104 101.2 -104 108 C-97.4 108 -90.8 108 -84 108 C-84 101.4 -84 94.8 -84 88 C-90.6 88 -97.2 88 -104 88 Z M-83 88 C-83 94.6 -83 101.2 -83 108 C-76.4 108 -69.8 108 -63 108 C-63 101.4 -63 94.8 -63 88 C-69.6 88 -76.2 88 -83 88 Z M-62 88 C-62 94.6 -62 101.2 -62 108 C-61.67 108 -61.34 108 -61 108 C-61 101.4 -61 94.8 -61 88 C-61.33 88 -61.66 88 -62 88 Z M-31 88 C-31 94.6 -31 101.2 -31 108 C-27.7 108 -24.4 108 -21 108 C-21 101.4 -21 94.8 -21 88 C-24.3 88 -27.6 88 -31 88 Z M-20 88 C-20 94.6 -20 101.2 -20 108 C-13.4 108 -6.8 108 0 108 C0 101.4 0 94.8 0 88 C-6.6 88 -13.2 88 -20 88 Z M1 88 C1 94.6 1 101.2 1 108 C7.27 108 13.54 108 20 108 C20 101.4 20 94.8 20 88 C13.73 88 7.46 88 1 88 Z M22 88 C22 94.6 22 101.2 22 108 C24.31 108 26.62 108 29 108 C29 101.4 29 94.8 29 88 C26.69 88 24.38 88 22 88 Z M72 88 C72 94.6 72 101.2 72 108 C75.63 108 79.26 108 83 108 C83 101.4 83 94.8 83 88 C79.37 88 75.74 88 72 88 Z M85 88 C85 94.6 85 101.2 85 108 C91.27 108 97.54 108 104 108 C104 101.4 104 94.8 104 88 C97.73 88 91.46 88 85 88 Z M106 88 C106 94.6 106 101.2 106 108 C112.27 108 118.54 108 125 108 C125 101.4 125 94.8 125 88 C118.73 88 112.46 88 106 88 Z M-125 109 C-125 115.6 -125 122.2 -125 129 C-118.4 129 -111.8 129 -105 129 C-105 122.4 -105 115.8 -105 109 C-111.6 109 -118.2 109 -125 109 Z M-104 109 C-104 115.6 -104 122.2 -104 129 C-97.4 129 -90.8 129 -84 129 C-84 122.4 -84 115.8 -84 109 C-90.6 109 -97.2 109 -104 109 Z M-83 109 C-83 115.6 -83 122.2 -83 129 C-76.4 129 -69.8 129 -63 129 C-63 122.4 -63 115.8 -63 109 C-69.6 109 -76.2 109 -83 109 Z M-62 109 C-62 115.6 -62 122.2 -62 129 C-61.67 129 -61.34 129 -61 129 C-60.77837143 126.22964291 -60.57220751 123.45961005 -60.375 120.6875 C-60.31054688 119.90181641 -60.24609375 119.11613281 -60.1796875 118.30664062 C-60.128125 117.54931641 -60.0765625 116.79199219 -60.0234375 116.01171875 C-59.97106934 115.31522217 -59.91870117 114.61872559 -59.86474609 113.90112305 C-59.86644144 111.66489452 -59.86644144 111.66489452 -62 109 Z M-31 109 C-31 115.6 -31 122.2 -31 129 C-30.67 129 -30.34 129 -30 129 C-30 123.72 -30 118.44 -30 113 C-27.03 113 -24.06 113 -21 113 C-21 111.68 -21 110.36 -21 109 C-24.3 109 -27.6 109 -31 109 Z M-20 109 C-20 110.32 -20 111.64 -20 113 C-13.73 113 -7.46 113 -1 113 C-1 117.95 -1 122.9 -1 128 C-0.67 128 -0.34 128 0 128 C0 121.73 0 115.46 0 109 C-6.6 109 -13.2 109 -20 109 Z M1 109 C1 110.32 1 111.64 1 113 C7.27 113 13.54 113 20 113 C20 111.68 20 110.36 20 109 C13.73 109 7.46 109 1 109 Z M22 109 C22 110.32 22 111.64 22 113 C24.31 113.33 26.62 113.66 29 114 C29.33 113.34 29.66 112.68 30 112 C29.67 111.01 29.34 110.02 29 109 C26.69 109 24.38 109 22 109 Z M72 109 C71.67 109.99 71.34 110.98 71 112 C68.69 112.33 66.38 112.66 64 113 C64 118.28 64 123.56 64 129 C70.27 129 76.54 129 83 129 C83 122.4 83 115.8 83 109 C79.37 109 75.74 109 72 109 Z M85 109 C85 115.6 85 122.2 85 129 C91.27 129 97.54 129 104 129 C104 122.4 104 115.8 104 109 C97.73 109 91.46 109 85 109 Z M106 109 C106 115.6 106 122.2 106 129 C112.27 129 118.54 129 125 129 C125 122.4 125 115.8 125 109 C118.73 109 112.46 109 106 109 Z M58 113 C58 117.95 58 122.9 58 128 C59.32 128.33 60.64 128.66 62 129 C62 123.72 62 118.44 62 113 C60.68 113 59.36 113 58 113 Z M-125 130 C-125 136.6 -125 143.2 -125 150 C-118.4 150 -111.8 150 -105 150 C-105 143.4 -105 136.8 -105 130 C-111.6 130 -118.2 130 -125 130 Z M-104 130 C-104 136.6 -104 143.2 -104 150 C-97.4 150 -90.8 150 -84 150 C-84 143.4 -84 136.8 -84 130 C-90.6 130 -97.2 130 -104 130 Z M-83 130 C-83 136.6 -83 143.2 -83 150 C-76.4 150 -69.8 150 -63 150 C-63 143.4 -63 136.8 -63 130 C-69.6 130 -76.2 130 -83 130 Z M-62 130 C-62 136.6 -62 143.2 -62 150 C-61.505 148.515 -61.505 148.515 -61 147 C-54.73 147 -48.46 147 -42 147 C-42 146.67 -42 146.34 -42 146 C-48.27 146 -54.54 146 -61 146 C-61 140.72 -61 135.44 -61 130 C-61.33 130 -61.66 130 -62 130 Z M43 130 C43 135.61 43 141.22 43 147 C45.64 147.33 48.28 147.66 51 148 C51.33 148.66 51.66 149.32 52 150 C55.3 150 58.6 150 62 150 C62 143.4 62 136.8 62 130 C55.73 130 49.46 130 43 130 Z M64 130 C64 136.6 64 143.2 64 150 C70.27 150 76.54 150 83 150 C83 143.4 83 136.8 83 130 C76.73 130 70.46 130 64 130 Z M85 130 C85 136.6 85 143.2 85 150 C91.27 150 97.54 150 104 150 C104 143.4 104 136.8 104 130 C97.73 130 91.46 130 85 130 Z M106 130 C106 136.6 106 143.2 106 150 C112.27 150 118.54 150 125 150 C125 143.4 125 136.8 125 130 C118.73 130 112.46 130 106 130 Z M-41 146 C-41 146.33 -41 146.66 -41 147 C-38.36 147 -35.72 147 -33 147 C-33 146.67 -33 146.34 -33 146 C-35.64 146 -38.28 146 -41 146 Z M-31 147 C-31 147.99 -31 148.98 -31 150 C-27.7 150 -24.4 150 -21 150 C-21 148.68 -21 147.36 -21 146 C-22.27875 145.979375 -23.5575 145.95875 -24.875 145.9375 C-25.59429687 145.92589844 -26.31359375 145.91429687 -27.0546875 145.90234375 C-29.08185404 145.87350758 -29.08185404 145.87350758 -31 147 Z M-20 146 C-20 147.32 -20 148.64 -20 150 C-13.4 150 -6.8 150 0 150 C-0.33 148.68 -0.66 147.36 -1 146 C-7.27 146 -13.54 146 -20 146 Z M1 146 C1.33 147.32 1.66 148.64 2 150 C2.33 148.68 2.66 147.36 3 146 C2.34 146 1.68 146 1 146 Z M5 146 C5 146.33 5 146.66 5 147 C9.95 147 14.9 147 20 147 C20 146.67 20 146.34 20 146 C15.05 146 10.1 146 5 146 Z M39 130 C39.495 137.92 39.495 137.92 40 146 C34.06 146 28.12 146 22 146 C22 146.33 22 146.66 22 147 C28.27 147 34.54 147 41 147 C41 141.39 41 135.78 41 130 C40.34 130 39.68 130 39 130 Z M-125 151 C-125 157.6 -125 164.2 -125 171 C-118.4 171 -111.8 171 -105 171 C-105 164.4 -105 157.8 -105 151 C-111.6 151 -118.2 151 -125 151 Z M-104 151 C-104 157.6 -104 164.2 -104 171 C-97.4 171 -90.8 171 -84 171 C-84 164.4 -84 157.8 -84 151 C-90.6 151 -97.2 151 -104 151 Z M-83 151 C-83 157.6 -83 164.2 -83 171 C-80.03 171 -77.06 171 -74 171 C-74 168.69 -74 166.38 -74 164 C-70.37 164 -66.74 164 -63 164 C-63 159.71 -63 155.42 -63 151 C-69.6 151 -76.2 151 -83 151 Z M-62 151 C-62 155.29 -62 159.58 -62 164 C-55.4 164 -48.8 164 -42 164 C-42 163.67 -42 163.34 -42 163 C-48.27 163 -54.54 163 -61 163 C-61 159.04 -61 155.08 -61 151 C-61.33 151 -61.66 151 -62 151 Z M-31 151 C-31 154.96 -31 158.92 -31 163 C-34.3 163 -37.6 163 -41 163 C-41 163.33 -41 163.66 -41 164 C-34.4 164 -27.8 164 -21 164 C-21 159.71 -21 155.42 -21 151 C-24.3 151 -27.6 151 -31 151 Z M-20 151 C-20 155.29 -20 159.58 -20 164 C-19.01 164 -18.02 164 -17 164 C-17 166.31 -17 168.62 -17 171 C-11.39 171 -5.78 171 0 171 C0 164.4 0 157.8 0 151 C-6.6 151 -13.2 151 -20 151 Z M1 151 C1 157.6 1 164.2 1 171 C6.28 171 11.56 171 17 171 C17 168.69 17 166.38 17 164 C17.99 163.67 18.98 163.34 20 163 C14.06 163 8.12 163 2 163 C2 159.04 2 155.08 2 151 C1.67 151 1.34 151 1 151 Z M52 151 C52 154.96 52 158.92 52 163 C49.03 163 46.06 163 43 163 C43 163.33 43 163.66 43 164 C49.27 164 55.54 164 62 164 C62 159.71 62 155.42 62 151 C58.7 151 55.4 151 52 151 Z M64 151 C64 155.29 64 159.58 64 164 C65.32 164 66.64 164 68 164 C68 166.31 68 168.62 68 171 C72.95 171 77.9 171 83 171 C83 164.4 83 157.8 83 151 C76.73 151 70.46 151 64 151 Z M85 151 C85 157.6 85 164.2 85 171 C91.27 171 97.54 171 104 171 C104 164.4 104 157.8 104 151 C97.73 151 91.46 151 85 151 Z M106 151 C106 157.6 106 164.2 106 171 C112.27 171 118.54 171 125 171 C125 164.4 125 157.8 125 151 C118.73 151 112.46 151 106 151 Z M22 163 C22 163.33 22 163.66 22 164 C28.27 164 34.54 164 41 164 C41 163.67 41 163.34 41 163 C34.73 163 28.46 163 22 163 Z M-104 172 C-104 178.6 -104 185.2 -104 192 C-97.4 192 -90.8 192 -84 192 C-84 185.4 -84 178.8 -84 172 C-90.6 172 -97.2 172 -104 172 Z M-83 172 C-83 178.6 -83 185.2 -83 192 C-80.03 192 -77.06 192 -74 192 C-74 188.37 -74 184.74 -74 181 C-70.37 181 -66.74 181 -63 181 C-63 180.67 -63 180.34 -63 180 C-66.63 180 -70.26 180 -74 180 C-74 177.36 -74 174.72 -74 172 C-76.97 172 -79.94 172 -83 172 Z M-17 172 C-17 174.64 -17 177.28 -17 180 C-17.99 180.33 -18.98 180.66 -20 181 C-19.01 181 -18.02 181 -17 181 C-17 184.63 -17 188.26 -17 192 C-11.39 192 -5.78 192 0 192 C0 185.4 0 178.8 0 172 C-5.61 172 -11.22 172 -17 172 Z M1 172 C1 178.6 1 185.2 1 192 C7.27 192 13.54 192 20 192 C20 188.04 20 184.08 20 180 C19.01 180 18.02 180 17 180 C17 177.36 17 174.72 17 172 C11.72 172 6.44 172 1 172 Z M68 172 C68 174.64 68 177.28 68 180 C66.68 180.33 65.36 180.66 64 181 C70.27 181 76.54 181 83 181 C83 178.03 83 175.06 83 172 C78.05 172 73.1 172 68 172 Z M85 172 C84.99162568 179.58506711 84.99162568 179.58506711 85.5 187.0625 C85.665 188.691875 85.83 190.32125 86 192 C91.94 192 97.88 192 104 192 C104 185.4 104 178.8 104 172 C97.73 172 91.46 172 85 172 Z M-62 180 C-62 180.33 -62 180.66 -62 181 C-55.4 181 -48.8 181 -42 181 C-42 180.67 -42 180.34 -42 180 C-48.6 180 -55.2 180 -62 180 Z M-41 180 C-41 180.33 -41 180.66 -41 181 C-34.4 181 -27.8 181 -21 181 C-21 180.67 -21 180.34 -21 180 C-27.6 180 -34.2 180 -41 180 Z M22 180 C22 183.96 22 187.92 22 192 C24.64 192 27.28 192 30 192 C30 188.37 30 184.74 30 181 C33.63 181 37.26 181 41 181 C41 180.67 41 180.34 41 180 C34.73 180 28.46 180 22 180 Z M43 180 C43 180.33 43 180.66 43 181 C49.27 181 55.54 181 62 181 C62 180.67 62 180.34 62 180 C55.73 180 49.46 180 43 180 Z M-104 193 C-104 199.6 -104 206.2 -104 213 C-97.4 213 -90.8 213 -84 213 C-84 206.4 -84 199.8 -84 193 C-90.6 193 -97.2 193 -104 193 Z M-83 193 C-83 199.6 -83 206.2 -83 213 C-80.03 213 -77.06 213 -74 213 C-74 209.37 -74 205.74 -74 202 C-70.37 202 -66.74 202 -63 202 C-63 200.35 -63 198.7 -63 197 C-66.63 197 -70.26 197 -74 197 C-74 195.68 -74 194.36 -74 193 C-76.97 193 -79.94 193 -83 193 Z M-17 193 C-17 194.32 -17 195.64 -17 197 C-17.99 197 -18.98 197 -20 197 C-20 198.65 -20 200.3 -20 202 C-13.4 202 -6.8 202 0 202 C0 199.03 0 196.06 0 193 C-5.61 193 -11.22 193 -17 193 Z M1 193 C1 195.97 1 198.94 1 202 C7.27 202 13.54 202 20 202 C20 199.03 20 196.06 20 193 C13.73 193 7.46 193 1 193 Z M22 193 C22 195.97 22 198.94 22 202 C28.27 202 34.54 202 41 202 C41 200.35 41 198.7 41 197 C37.37 197 33.74 197 30 197 C30 195.68 30 194.36 30 193 C27.36 193 24.72 193 22 193 Z M86 193 C84.97629451 199.93844832 85.20559557 206.02689445 86 213 C91.94 213 97.88 213 104 213 C104 206.4 104 199.8 104 193 C98.06 193 92.12 193 86 193 Z M-62 197 C-62 198.65 -62 200.3 -62 202 C-55.4 202 -48.8 202 -42 202 C-42 200.35 -42 198.7 -42 197 C-48.6 197 -55.2 197 -62 197 Z M-41 197 C-41 198.65 -41 200.3 -41 202 C-34.4 202 -27.8 202 -21 202 C-21 200.35 -21 198.7 -21 197 C-27.6 197 -34.2 197 -41 197 Z M43 197 C43 198.65 43 200.3 43 202 C49.27 202 55.54 202 62 202 C62 200.35 62 198.7 62 197 C55.73 197 49.46 197 43 197 Z M64 197 C64 198.65 64 200.3 64 202 C70.27 202 76.54 202 83 202 C83 200.35 83 198.7 83 197 C76.73 197 70.46 197 64 197 Z M-61 207 C-57 208 -57 208 -57 208 Z M7 207 C8 209 8 209 8 209 Z M27 207 C27 208.98 27 210.96 27 213 C28.98 212.67 30.96 212.34 33 212 C33 211.67 33 211.34 33 211 C31.35 211 29.7 211 28 211 C27.67 209.68 27.34 208.36 27 207 Z M52 207 C51.67 208.65 51.34 210.3 51 212 C51.99 212.495 51.99 212.495 53 213 C53 211.02 53 209.04 53 207 C52.67 207 52.34 207 52 207 Z M-62 208 C-62 209.65 -62 211.3 -62 213 C-61.67 213 -61.34 213 -61 213 C-61 211.35 -61 209.7 -61 208 C-61.33 208 -61.66 208 -62 208 Z M-56 208 C-55 212 -55 212 -55 212 Z M-51 211 C-51 211.33 -51 211.66 -51 212 C-49.35 212 -47.7 212 -46 212 C-46 211.67 -46 211.34 -46 211 C-47.65 211 -49.3 211 -51 211 Z M-41 211 C-41 211.33 -41 211.66 -41 212 C-39.35 212 -37.7 212 -36 212 C-36 211.67 -36 211.34 -36 211 C-37.65 211 -39.3 211 -41 211 Z M-31 211 C-31 211.33 -31 211.66 -31 212 C-29.35 212 -27.7 212 -26 212 C-26 211.67 -26 211.34 -26 211 C-27.65 211 -29.3 211 -31 211 Z M-20 211 C-16 212 -16 212 -16 212 Z M12 211 C12.66 211.66 13.32 212.32 14 213 C14 212.34 14 211.68 14 211 C13.34 211 12.68 211 12 211 Z M17 211 C18 213 18 213 18 213 Z M23 211 C24 213 24 213 24 213 Z M57 211 C57 211.33 57 211.66 57 212 C58.65 212 60.3 212 62 212 C62 211.67 62 211.34 62 211 C60.35 211 58.7 211 57 211 Z M65 211 C65 211.66 65 212.32 65 213 C65.66 213 66.32 213 67 213 C67 212.34 67 211.68 67 211 C66.34 211 65.68 211 65 211 Z M71 211 C72 213 72 213 72 213 Z M-83 214 C-83 220.6 -83 227.2 -83 234 C-76.4 234 -69.8 234 -63 234 C-63 230.7 -63 227.4 -63 224 C-66.63 224 -70.26 224 -74 224 C-74 220.7 -74 217.4 -74 214 C-76.97 214 -79.94 214 -83 214 Z M-62 214 C-61 218 -61 218 -61 218 Z M-52 214 C-51.67 214.99 -51.34 215.98 -51 217 C-50.67 216.01 -50.34 215.02 -50 214 C-50.66 214 -51.32 214 -52 214 Z M-32 214 C-31.67 214.99 -31.34 215.98 -31 217 C-30.67 216.01 -30.34 215.02 -30 214 C-30.66 214 -31.32 214 -32 214 Z M-16 214 C-15 218 -15 218 -15 218 Z M23 214 C24 218 24 218 24 218 Z M27 214 C28 218 28 218 28 218 Z M33 214 C34 217 34 217 34 217 Z M46 214 C47 217 47 217 47 217 Z M52 214 C51.67 215.32 51.34 216.64 51 218 C51.66 218 52.32 218 53 218 C52.67 216.68 52.34 215.36 52 214 Z M56 214 C57 218 57 218 57 218 Z M65 214 C65.66 214.66 66.32 215.32 67 216 C67 215.34 67 214.68 67 214 C66.34 214 65.68 214 65 214 Z M71 214 C72 216 72 216 72 216 Z M-36 215 C-36.33 215.99 -36.66 216.98 -37 218 C-36.34 218 -35.68 218 -35 218 C-35.33 217.01 -35.66 216.02 -36 215 Z M13 215 C14 217 14 217 14 217 Z M17 215 C18 217 18 217 18 217 Z M39 216 C39 216.66 39 217.32 39 218 C39.66 218 40.32 218 41 218 C41 217.34 41 216.68 41 216 C40.34 216 39.68 216 39 216 Z M-62 225 C-62 227.97 -62 230.94 -62 234 C-55.4 234 -48.8 234 -42 234 C-42 230.7 -42 227.4 -42 224 C-45.14588944 223.97316303 -48.29155271 223.95324098 -51.4375 223.9375 C-52.33533203 223.92912109 -53.23316406 223.92074219 -54.15820312 223.91210938 C-55.01220703 223.90888672 -55.86621094 223.90566406 -56.74609375 223.90234375 C-57.93223267 223.89448853 -57.93223267 223.89448853 -59.14233398 223.88647461 C-61.01592689 223.79504091 -61.01592689 223.79504091 -62 225 Z M-41 224 C-41 227.3 -41 230.6 -41 234 C-34.4 234 -27.8 234 -21 234 C-21 230.7 -21 227.4 -21 224 C-27.6 224 -34.2 224 -41 224 Z M-20 225 C-20 227.97 -20 230.94 -20 234 C-13.4 234 -6.8 234 0 234 C0 230.7 0 227.4 0 224 C-3.14588944 223.97316303 -6.29155271 223.95324098 -9.4375 223.9375 C-10.33533203 223.92912109 -11.23316406 223.92074219 -12.15820312 223.91210938 C-13.01220703 223.90888672 -13.86621094 223.90566406 -14.74609375 223.90234375 C-15.93223267 223.89448853 -15.93223267 223.89448853 -17.14233398 223.88647461 C-19.01592689 223.79504091 -19.01592689 223.79504091 -20 225 Z M1 225 C1 227.97 1 230.94 1 234 C7.27 234 13.54 234 20 234 C20 230.7 20 227.4 20 224 C17.02077407 223.97316013 14.04178705 223.95323963 11.0625 223.9375 C10.21236328 223.92912109 9.36222656 223.92074219 8.48632812 223.91210938 C7.67744141 223.90888672 6.86855469 223.90566406 6.03515625 223.90234375 C5.2862915 223.89710693 4.53742676 223.89187012 3.76586914 223.88647461 C1.97332261 223.80658248 1.97332261 223.80658248 1 225 Z M22 225 C22 227.97 22 230.94 22 234 C28.27 234 34.54 234 41 234 C41 230.7 41 227.4 41 224 C38.02077407 223.97316013 35.04178705 223.95323963 32.0625 223.9375 C31.21236328 223.92912109 30.36222656 223.92074219 29.48632812 223.91210938 C28.67744141 223.90888672 27.86855469 223.90566406 27.03515625 223.90234375 C26.2862915 223.89710693 25.53742676 223.89187012 24.76586914 223.88647461 C22.97332261 223.80658248 22.97332261 223.80658248 22 225 Z M43 224 C43 227.3 43 230.6 43 234 C49.27 234 55.54 234 62 234 C62 230.7 62 227.4 62 224 C55.73 224 49.46 224 43 224 Z M64 224 C64 227.3 64 230.6 64 234 C70.27 234 76.54 234 83 234 C83 230.7 83 227.4 83 224 C76.73 224 70.46 224 64 224 Z M-41 235 C-41 241.6 -41 248.2 -41 255 C-34.4 255 -27.8 255 -21 255 C-21 248.4 -21 241.8 -21 235 C-27.6 235 -34.2 235 -41 235 Z M-20 235 C-20 241.6 -20 248.2 -20 255 C-13.4 255 -6.8 255 0 255 C0 248.4 0 241.8 0 235 C-6.6 235 -13.2 235 -20 235 Z M1 235 C1 241.6 1 248.2 1 255 C7.27 255 13.54 255 20 255 C20 248.4 20 241.8 20 235 C13.73 235 7.46 235 1 235 Z M22 235 C22 241.6 22 248.2 22 255 C28.27 255 34.54 255 41 255 C41 248.4 41 241.8 41 235 C34.73 235 28.46 235 22 235 Z " fill="#010101" transform="translate(132,0)"/>
<path d="M0 0 C0.99 0.495 0.99 0.495 2 1 C2 3.97 2 6.94 2 10 C6.95 10 11.9 10 17 10 C17 10.33 17 10.66 17 11 C12.05 11 7.1 11 2 11 C2 17.6 2 24.2 2 31 C8.27 31 14.54 31 21 31 C21 25.39 21 19.78 21 14 C21.66 14 22.32 14 23 14 C23 19.61 23 25.22 23 31 C28.61 31 34.22 31 40 31 C40 31.33 40 31.66 40 32 C34.39 32 28.78 32 23 32 C23 38.6 23 45.2 23 52 C29.27 52 35.54 52 42 52 C42 46.06 42 40.12 42 34 C42.66 34.33 43.32 34.66 44 35 C44 40.61 44 46.22 44 52 C47.63 52 51.26 52 55 52 C55 52.33 55 52.66 55 53 C51.37 53 47.74 53 44 53 C44 59.6 44 66.2 44 73 C50.27 73 56.54 73 63 73 C63.33 71.68 63.66 70.36 64 69 C65.00005304 72.00015912 65.11575585 73.97423756 65.09765625 77.10546875 C65.09443359 78.08837891 65.09121094 79.07128906 65.08789062 80.08398438 C65.07951172 81.10814453 65.07113281 82.13230469 65.0625 83.1875 C65.05798828 84.22326172 65.05347656 85.25902344 65.04882812 86.32617188 C65.0370401 88.88417266 65.02058515 91.44205733 65 94 C66.98 94 68.96 94 71 94 C71 94.33 71 94.66 71 95 C69.02 95 67.04 95 65 95 C65 101.6 65 108.2 65 115 C67.64 115 70.28 115 73 115 C73 115.33 73 115.66 73 116 C70.36 116 67.72 116 65 116 C65 122.6 65 129.2 65 136 C67.31 136 69.62 136 72 136 C72 136.33 72 136.66 72 137 C69.69 137 67.38 137 65 137 C65 143.6 65 150.2 65 157 C65.99 157.33 66.98 157.66 68 158 C67.01 158 66.02 158 65 158 C65.03480469 158.92232422 65.03480469 158.92232422 65.0703125 159.86328125 C65.08835937 160.67152344 65.10640625 161.47976562 65.125 162.3125 C65.14820313 163.11300781 65.17140625 163.91351563 65.1953125 164.73828125 C65 167 65 167 63 170 C63 166.04 63 162.08 63 158 C56.73 158 50.46 158 44 158 C44 164.6 44 171.2 44 178 C49.28 178 54.56 178 60 178 C60 178.33 60 178.66 60 179 C54.72 179 49.44 179 44 179 C44 185.6 44 192.2 44 199 C44.99 199.33 45.98 199.66 47 200 C46.01 200 45.02 200 44 200 C43.67 201.65 43.34 203.3 43 205 C42.67 205 42.34 205 42 205 C42 203.35 42 201.7 42 200 C36.06 200 30.12 200 24 200 C24.0309375 202.165625 24.0309375 202.165625 24.0625 204.375 C24.0700134 209.63437862 23.62178008 214.78148862 23 220 C24.32 220.33 25.64 220.66 27 221 C25.68 221 24.36 221 23 221 C23 222.32 23 223.64 23 225 C22.34 225 21.68 225 21 225 C21 223.68 21 222.36 21 221 C14.73 221 8.46 221 2 221 C2 226.61 2 232.22 2 238 C1.34 238.33 0.68 238.66 0 239 C0 233.06 0 227.12 0 221 C-6.27 221 -12.54 221 -19 221 C-19 227.6 -19 234.2 -19 241 C-14.38 241 -9.76 241 -5 241 C-5 241.33 -5 241.66 -5 242 C-9.62 242 -14.24 242 -19 242 C-19 243.65 -19 245.3 -19 247 C-19.66 247 -20.32 247 -21 247 C-21 245.35 -21 243.7 -21 242 C-27.27 242 -33.54 242 -40 242 C-40 245.3 -40 248.6 -40 252 C-40.66 252 -41.32 252 -42 252 C-42 248.7 -42 245.4 -42 242 C-48.27 242 -54.54 242 -61 242 C-61 245.63 -61 249.26 -61 253 C-61.33 253 -61.66 253 -62 253 C-62 249.37 -62 245.74 -62 242 C-68.6 242 -75.2 242 -82 242 C-82 245.3 -82 248.6 -82 252 C-82.33 252 -82.66 252 -83 252 C-83 248.7 -83 245.4 -83 242 C-89.6 242 -96.2 242 -103 242 C-103.33 243.32 -103.66 244.64 -104 246 C-104 244.68 -104 243.36 -104 242 C-107.96 242 -111.92 242 -116 242 C-116 241.67 -116 241.34 -116 241 C-112.04 241 -108.08 241 -104 241 C-104 234.4 -104 227.8 -104 221 C-110.6 221 -117.2 221 -124 221 C-124 226.28 -124 231.56 -124 237 C-124.33 237 -124.66 237 -125 237 C-125 231.72 -125 226.44 -125 221 C-131.6 221 -138.2 221 -145 221 C-145.33 221.66 -145.66 222.32 -146 223 C-146 222.34 -146 221.68 -146 221 C-146.66 220.67 -147.32 220.34 -148 220 C-147.34 220 -146.68 220 -146 220 C-146 213.4 -146 206.8 -146 200 C-152.93 200.33 -159.86 200.66 -167 201 C-168.22625047 198.54749907 -168.03425355 197.15689565 -167.87890625 194.4296875 C-167.83056641 193.53378906 -167.78222656 192.63789063 -167.73242188 191.71484375 C-167.67634766 190.77769531 -167.62027344 189.84054688 -167.5625 188.875 C-167.51029297 187.93011719 -167.45808594 186.98523438 -167.40429688 186.01171875 C-167.27443481 183.67420159 -167.13784835 181.33705979 -167 179 C-171.62 179 -176.24 179 -181 179 C-181 178.67 -181 178.34 -181 178 C-176.38 178 -171.76 178 -167 178 C-167 171.4 -167 164.8 -167 158 C-173.6 158 -180.2 158 -187 158 C-187.495 159.98 -187.495 159.98 -188 162 C-188.78653402 158.59698245 -189.08116649 155.62008956 -188.87890625 152.13671875 C-188.83056641 151.25048828 -188.78222656 150.36425781 -188.73242188 149.45117188 C-188.67634766 148.53916016 -188.62027344 147.62714844 -188.5625 146.6875 C-188.51029297 145.75615234 -188.45808594 144.82480469 -188.40429688 143.86523438 C-188.2751852 141.57643647 -188.14024585 139.28813814 -188 137 C-189.65 137 -191.3 137 -193 137 C-193 136.67 -193 136.34 -193 136 C-191.35 136 -189.7 136 -188 136 C-188 129.4 -188 122.8 -188 116 C-189.98 116 -191.96 116 -194 116 C-194 115.67 -194 115.34 -194 115 C-192.02 115 -190.04 115 -188 115 C-188 108.4 -188 101.8 -188 95 C-189.32 94.67 -190.64 94.34 -192 94 C-190.68 94 -189.36 94 -188 94 C-188 88.39 -188 82.78 -188 77 C-187.67 77 -187.34 77 -187 77 C-187 82.61 -187 88.22 -187 94 C-180.4 94 -173.8 94 -167 94 C-167 87.4 -167 80.8 -167 74 C-173.27 74 -179.54 74 -186 74 C-186 73.67 -186 73.34 -186 73 C-179.73 73 -173.46 73 -167 73 C-167 66.4 -167 59.8 -167 53 C-169.97 53 -172.94 53 -176 53 C-176 52.67 -176 52.34 -176 52 C-173.03 52 -170.06 52 -167 52 C-167 47.38 -167 42.76 -167 38 C-166.67 38 -166.34 38 -166 38 C-166 42.62 -166 47.24 -166 52 C-159.4 52 -152.8 52 -146 52 C-146 45.4 -146 38.8 -146 32 C-150.95 32 -155.9 32 -161 32 C-161 31.67 -161 31.34 -161 31 C-156.05 31 -151.1 31 -146 31 C-146 26.05 -146 21.1 -146 16 C-145.67 16 -145.34 16 -145 16 C-145 20.95 -145 25.9 -145 31 C-142.36 31 -139.72 31 -137 31 C-137 31.33 -137 31.66 -137 32 C-139.64 32 -142.28 32 -145 32 C-145 38.6 -145 45.2 -145 52 C-142.36 52 -139.72 52 -137 52 C-137 52.33 -137 52.66 -137 53 C-139.64 53 -142.28 53 -145 53 C-145 59.6 -145 66.2 -145 73 C-138.4 73 -131.8 73 -125 73 C-125 70.36 -125 67.72 -125 65 C-124.67 65 -124.34 65 -124 65 C-122.59004825 93.64901959 -122.89971758 122.32559629 -123 151 C-125.375 151.625 -125.375 151.625 -128 152 C-128.66 151.34 -129.32 150.68 -130 150 C-128.35 150 -126.7 150 -125 150 C-125 145.71 -125 141.42 -125 137 C-131.6 137 -138.2 137 -145 137 C-145 143.6 -145 150.2 -145 157 C-142.36 157 -139.72 157 -137 157 C-137 157.33 -137 157.66 -137 158 C-139.64 158 -142.28 158 -145 158 C-145 164.6 -145 171.2 -145 178 C-142.03 178 -139.06 178 -136 178 C-136 178.33 -136 178.66 -136 179 C-138.97 179 -141.94 179 -145 179 C-145 185.6 -145 192.2 -145 199 C-142.03 199 -139.06 199 -136 199 C-136 195.37 -136 191.74 -136 188 C-132.37 188 -128.74 188 -125 188 C-124.67 186.68 -124.34 185.36 -124 184 C-124 185.32 -124 186.64 -124 188 C-117.4 188 -110.8 188 -104 188 C-104 186.35 -104 184.7 -104 183 C-103.67 183 -103.34 183 -103 183 C-103 184.65 -103 186.3 -103 188 C-96.4 188 -89.8 188 -83 188 C-82.67 186.68 -82.34 185.36 -82 184 C-82 185.32 -82 186.64 -82 188 C-75.4 188 -68.8 188 -62 188 C-62 185.03 -62 182.06 -62 179 C-67.28 179 -72.56 179 -78 179 C-78 178.67 -78 178.34 -78 178 C-72.72 178 -67.44 178 -62 178 C-62 171.4 -62 164.8 -62 158 C-67.94 158.33 -73.88 158.66 -80 159 C-80 157.35 -80 155.7 -80 154 C-79.67 154.99 -79.34 155.98 -79 157 C-73.39 157 -67.78 157 -62 157 C-62 150.4 -62 143.8 -62 137 C-68.6 137 -75.2 137 -82 137 C-82 140.3 -82 143.6 -82 147 C-82.33 147 -82.66 147 -83 147 C-83 143.7 -83 140.4 -83 137 C-84.32 136.67 -85.64 136.34 -87 136 C-85.68 136 -84.36 136 -83 136 C-82.67 135.34 -82.34 134.68 -82 134 C-82 134.66 -82 135.32 -82 136 C-75.07 135.67 -68.14 135.34 -61 135 C-61 142.26 -61 149.52 -61 157 C-55.39 156.67 -49.78 156.34 -44 156 C-44.33 157.32 -44.66 158.64 -45 160 C-45 159.34 -45 158.68 -45 158 C-50.28 158 -55.56 158 -61 158 C-61 164.6 -61 171.2 -61 178 C-54.73 178 -48.46 178 -42 178 C-42 175.03 -42 172.06 -42 169 C-39.70986347 172.4352048 -39.82157027 173.985331 -40 178 C-38.02 178 -36.04 178 -34 178 C-34 178.33 -34 178.66 -34 179 C-35.98 179 -37.96 179 -40 179 C-40 181.97 -40 184.94 -40 188 C-33.73 188 -27.46 188 -21 188 C-20.67 186.02 -20.34 184.04 -20 182 C-19.67 182 -19.34 182 -19 182 C-19 183.98 -19 185.96 -19 188 C-12.73 188 -6.46 188 0 188 C0 186.35 0 184.7 0 183 C0.66 183 1.32 183 2 183 C2 184.65 2 186.3 2 188 C8.27 188 14.54 188 21 188 C21.33 186.35 21.66 184.7 22 183 C22.33 183 22.66 183 23 183 C24.25168929 188.3911342 24.06648892 193.48141974 24 199 C29.94 199 35.88 199 42 199 C42 192.4 42 185.8 42 179 C36.72 179 31.44 179 26 179 C26 178.67 26 178.34 26 178 C31.28 178 36.56 178 42 178 C42 171.4 42 164.8 42 158 C35.73 158 29.46 158 23 158 C23 158.99 23 159.98 23 161 C22.34 161 21.68 161 21 161 C21 160.01 21 159.02 21 158 C17.04 158 13.08 158 9 158 C9 157.67 9 157.34 9 157 C12.96 157 16.92 157 21 157 C21 150.4 21 143.8 21 137 C14.73 137 8.46 137 2 137 C2 141.29 2 145.58 2 150 C1.34 150 0.68 150 0 150 C0 145.71 0 141.42 0 137 C-1.98 137 -3.96 137 -6 137 C-6 136.67 -6 136.34 -6 136 C-4.02 136 -2.04 136 0 136 C0 129.4 0 122.8 0 116 C-0.99 115.67 -1.98 115.34 -3 115 C-2.01 115 -1.02 115 0 115 C0 113.35 0 111.7 0 110 C0.66 110 1.32 110 2 110 C2 111.65 2 113.3 2 115 C8.27 115 14.54 115 21 115 C21 108.4 21 101.8 21 95 C18.03 95 15.06 95 12 95 C12 94.67 12 94.34 12 94 C14.97 94 17.94 94 21 94 C21 87.4 21 80.8 21 74 C17.7 74 14.4 74 11 74 C11 73.67 11 73.34 11 73 C14.3 73 17.6 73 21 73 C21 66.4 21 59.8 21 53 C18.03 53 15.06 53 12 53 C12 52.67 12 52.34 12 52 C14.97 52 17.94 52 21 52 C21 45.4 21 38.8 21 32 C14.73 32 8.46 32 2 32 C2 36.95 2 41.9 2 47 C1.34 47 0.68 47 0 47 C0 42.05 0 37.1 0 32 C-5.94 32 -11.88 32 -18 32 C-18 31.67 -18 31.34 -18 31 C-12.06 31 -6.12 31 0 31 C0 24.4 0 17.8 0 11 C-2.31 11 -4.62 11 -7 11 C-7 10.67 -7 10.34 -7 10 C-4.69 10 -2.38 10 0 10 C0 6.7 0 3.4 0 0 Z M-166 53 C-166 59.6 -166 66.2 -166 73 C-159.4 73 -152.8 73 -146 73 C-146 66.4 -146 59.8 -146 53 C-152.6 53 -159.2 53 -166 53 Z M23 53 C23 59.6 23 66.2 23 73 C29.27 73 35.54 73 42 73 C42 66.4 42 59.8 42 53 C35.73 53 29.46 53 23 53 Z M-166 74 C-166 80.6 -166 87.2 -166 94 C-159.4 94 -152.8 94 -146 94 C-146 87.4 -146 80.8 -146 74 C-152.6 74 -159.2 74 -166 74 Z M-145 74 C-145 80.6 -145 87.2 -145 94 C-138.4 94 -131.8 94 -125 94 C-125 87.4 -125 80.8 -125 74 C-131.6 74 -138.2 74 -145 74 Z M23 74 C23 80.6 23 87.2 23 94 C29.27 94 35.54 94 42 94 C42 87.4 42 80.8 42 74 C35.73 74 29.46 74 23 74 Z M44 74 C44 80.6 44 87.2 44 94 C50.27 94 56.54 94 63 94 C63 87.4 63 80.8 63 74 C56.73 74 50.46 74 44 74 Z M-187 95 C-187 101.6 -187 108.2 -187 115 C-180.4 115 -173.8 115 -167 115 C-167 108.4 -167 101.8 -167 95 C-173.6 95 -180.2 95 -187 95 Z M-166 95 C-166 101.6 -166 108.2 -166 115 C-159.4 115 -152.8 115 -146 115 C-146 108.4 -146 101.8 -146 95 C-152.6 95 -159.2 95 -166 95 Z M-145 95 C-145 101.6 -145 108.2 -145 115 C-138.4 115 -131.8 115 -125 115 C-125 108.4 -125 101.8 -125 95 C-131.6 95 -138.2 95 -145 95 Z M23 95 C23 101.6 23 108.2 23 115 C29.27 115 35.54 115 42 115 C42 108.4 42 101.8 42 95 C35.73 95 29.46 95 23 95 Z M44 95 C44 101.6 44 108.2 44 115 C50.27 115 56.54 115 63 115 C63 108.4 63 101.8 63 95 C56.73 95 50.46 95 44 95 Z M-187 116 C-187 122.6 -187 129.2 -187 136 C-180.4 136 -173.8 136 -167 136 C-167 129.4 -167 122.8 -167 116 C-173.6 116 -180.2 116 -187 116 Z M-166 116 C-166 122.6 -166 129.2 -166 136 C-159.4 136 -152.8 136 -146 136 C-146 129.4 -146 122.8 -146 116 C-152.6 116 -159.2 116 -166 116 Z M-145 116 C-145 122.6 -145 129.2 -145 136 C-138.4 136 -131.8 136 -125 136 C-125 129.4 -125 122.8 -125 116 C-131.6 116 -138.2 116 -145 116 Z M2 116 C2 122.6 2 129.2 2 136 C8.27 136 14.54 136 21 136 C21 129.4 21 122.8 21 116 C14.73 116 8.46 116 2 116 Z M23 116 C23 122.6 23 129.2 23 136 C29.27 136 35.54 136 42 136 C42 129.4 42 122.8 42 116 C35.73 116 29.46 116 23 116 Z M44 116 C44 122.6 44 129.2 44 136 C50.27 136 56.54 136 63 136 C63 129.4 63 122.8 63 116 C56.73 116 50.46 116 44 116 Z M-187 137 C-187 143.6 -187 150.2 -187 157 C-180.4 157 -173.8 157 -167 157 C-167 150.4 -167 143.8 -167 137 C-173.6 137 -180.2 137 -187 137 Z M-166 137 C-166 143.6 -166 150.2 -166 157 C-159.4 157 -152.8 157 -146 157 C-146 150.4 -146 143.8 -146 137 C-152.6 137 -159.2 137 -166 137 Z M23 137 C23 143.6 23 150.2 23 157 C29.27 157 35.54 157 42 157 C42 150.4 42 143.8 42 137 C35.73 137 29.46 137 23 137 Z M44 137 C44 143.6 44 150.2 44 157 C50.27 157 56.54 157 63 157 C63 150.4 63 143.8 63 137 C56.73 137 50.46 137 44 137 Z M-166 158 C-166 164.6 -166 171.2 -166 178 C-159.4 178 -152.8 178 -146 178 C-146 171.4 -146 164.8 -146 158 C-152.6 158 -159.2 158 -166 158 Z M-166 179 C-166 185.6 -166 192.2 -166 199 C-159.4 199 -152.8 199 -146 199 C-146 192.4 -146 185.8 -146 179 C-152.6 179 -159.2 179 -166 179 Z M-61 179 C-61 181.97 -61 184.94 -61 188 C-54.73 188 -48.46 188 -42 188 C-42 185.03 -42 182.06 -42 179 C-48.27 179 -54.54 179 -61 179 Z M-123 193 C-119 194 -119 194 -119 194 Z M-55 193 C-54 195 -54 195 -54 195 Z M-35 193 C-35 194.98 -35 196.96 -35 199 C-33.02 198.67 -31.04 198.34 -29 198 C-29 197.67 -29 197.34 -29 197 C-30.65 197 -32.3 197 -34 197 C-34.33 195.68 -34.66 194.36 -35 193 Z M-10 193 C-10.33 194.65 -10.66 196.3 -11 198 C-10.01 198.495 -10.01 198.495 -9 199 C-9 197.02 -9 195.04 -9 193 C-9.33 193 -9.66 193 -10 193 Z M-124 194 C-124 195.65 -124 197.3 -124 199 C-123.67 199 -123.34 199 -123 199 C-123 197.35 -123 195.7 -123 194 C-123.33 194 -123.66 194 -124 194 Z M-118 194 C-117 198 -117 198 -117 198 Z M-113 197 C-113 197.33 -113 197.66 -113 198 C-111.35 198 -109.7 198 -108 198 C-108 197.67 -108 197.34 -108 197 C-109.65 197 -111.3 197 -113 197 Z M-103 197 C-103 197.33 -103 197.66 -103 198 C-101.35 198 -99.7 198 -98 198 C-98 197.67 -98 197.34 -98 197 C-99.65 197 -101.3 197 -103 197 Z M-93 197 C-93 197.33 -93 197.66 -93 198 C-91.35 198 -89.7 198 -88 198 C-88 197.67 -88 197.34 -88 197 C-89.65 197 -91.3 197 -93 197 Z M-82 197 C-78 198 -78 198 -78 198 Z M-50 197 C-49.34 197.66 -48.68 198.32 -48 199 C-48 198.34 -48 197.68 -48 197 C-48.66 197 -49.32 197 -50 197 Z M-45 197 C-44 199 -44 199 -44 199 Z M-39 197 C-38 199 -38 199 -38 199 Z M-5 197 C-5 197.33 -5 197.66 -5 198 C-3.35 198 -1.7 198 0 198 C0 197.67 0 197.34 0 197 C-1.65 197 -3.3 197 -5 197 Z M3 197 C3 197.66 3 198.32 3 199 C3.66 199 4.32 199 5 199 C5 198.34 5 197.68 5 197 C4.34 197 3.68 197 3 197 Z M9 197 C10 199 10 199 10 199 Z M-145 200 C-145 206.6 -145 213.2 -145 220 C-138.4 220 -131.8 220 -125 220 C-125 216.7 -125 213.4 -125 210 C-128.63 210 -132.26 210 -136 210 C-136 206.7 -136 203.4 -136 200 C-138.97 200 -141.94 200 -145 200 Z M-124 200 C-123 204 -123 204 -123 204 Z M-114 200 C-113.67 200.99 -113.34 201.98 -113 203 C-112.67 202.01 -112.34 201.02 -112 200 C-112.66 200 -113.32 200 -114 200 Z M-94 200 C-93.67 200.99 -93.34 201.98 -93 203 C-92.67 202.01 -92.34 201.02 -92 200 C-92.66 200 -93.32 200 -94 200 Z M-78 200 C-77 204 -77 204 -77 204 Z M-39 200 C-38 204 -38 204 -38 204 Z M-35 200 C-34 204 -34 204 -34 204 Z M-29 200 C-28 203 -28 203 -28 203 Z M-16 200 C-15 203 -15 203 -15 203 Z M-10 200 C-10.33 201.32 -10.66 202.64 -11 204 C-10.34 204 -9.68 204 -9 204 C-9.33 202.68 -9.66 201.36 -10 200 Z M-6 200 C-5 204 -5 204 -5 204 Z M3 200 C3.66 200.66 4.32 201.32 5 202 C5 201.34 5 200.68 5 200 C4.34 200 3.68 200 3 200 Z M9 200 C10 202 10 202 10 202 Z M-98 201 C-98.33 201.99 -98.66 202.98 -99 204 C-98.34 204 -97.68 204 -97 204 C-97.33 203.01 -97.66 202.02 -98 201 Z M-49 201 C-48 203 -48 203 -48 203 Z M-45 201 C-44 203 -44 203 -44 203 Z M-23 202 C-23 202.66 -23 203.32 -23 204 C-22.34 204 -21.68 204 -21 204 C-21 203.34 -21 202.68 -21 202 C-21.66 202 -22.32 202 -23 202 Z M-124 211 C-124 213.97 -124 216.94 -124 220 C-117.4 220 -110.8 220 -104 220 C-104 216.7 -104 213.4 -104 210 C-107.14588944 209.97316303 -110.29155271 209.95324098 -113.4375 209.9375 C-114.33533203 209.92912109 -115.23316406 209.92074219 -116.15820312 209.91210938 C-117.01220703 209.90888672 -117.86621094 209.90566406 -118.74609375 209.90234375 C-119.93223267 209.89448853 -119.93223267 209.89448853 -121.14233398 209.88647461 C-123.01592689 209.79504091 -123.01592689 209.79504091 -124 211 Z M-103 210 C-103 213.3 -103 216.6 -103 220 C-96.4 220 -89.8 220 -83 220 C-83 216.7 -83 213.4 -83 210 C-89.6 210 -96.2 210 -103 210 Z M-82 211 C-82 213.97 -82 216.94 -82 220 C-75.4 220 -68.8 220 -62 220 C-62 216.7 -62 213.4 -62 210 C-65.14588944 209.97316303 -68.29155271 209.95324098 -71.4375 209.9375 C-72.33533203 209.92912109 -73.23316406 209.92074219 -74.15820312 209.91210938 C-75.01220703 209.90888672 -75.86621094 209.90566406 -76.74609375 209.90234375 C-77.93223267 209.89448853 -77.93223267 209.89448853 -79.14233398 209.88647461 C-81.01592689 209.79504091 -81.01592689 209.79504091 -82 211 Z M-61 211 C-61 213.97 -61 216.94 -61 220 C-54.73 220 -48.46 220 -42 220 C-42 216.7 -42 213.4 -42 210 C-44.97922593 209.97316013 -47.95821295 209.95323963 -50.9375 209.9375 C-51.78763672 209.92912109 -52.63777344 209.92074219 -53.51367188 209.91210938 C-54.32255859 209.90888672 -55.13144531 209.90566406 -55.96484375 209.90234375 C-56.7137085 209.89710693 -57.46257324 209.89187012 -58.23413086 209.88647461 C-60.02667739 209.80658248 -60.02667739 209.80658248 -61 211 Z M-40 211 C-40 213.97 -40 216.94 -40 220 C-33.73 220 -27.46 220 -21 220 C-21 216.7 -21 213.4 -21 210 C-23.97922593 209.97316013 -26.95821295 209.95323963 -29.9375 209.9375 C-30.78763672 209.92912109 -31.63777344 209.92074219 -32.51367188 209.91210938 C-33.32255859 209.90888672 -34.13144531 209.90566406 -34.96484375 209.90234375 C-35.7137085 209.89710693 -36.46257324 209.89187012 -37.23413086 209.88647461 C-39.02667739 209.80658248 -39.02667739 209.80658248 -40 211 Z M-19 210 C-19 213.3 -19 216.6 -19 220 C-12.73 220 -6.46 220 0 220 C0 216.7 0 213.4 0 210 C-6.27 210 -12.54 210 -19 210 Z M2 210 C2 213.3 2 216.6 2 220 C8.27 220 14.54 220 21 220 C21 216.7 21 213.4 21 210 C14.73 210 8.46 210 2 210 Z M-103 221 C-103 227.6 -103 234.2 -103 241 C-96.4 241 -89.8 241 -83 241 C-83 234.4 -83 227.8 -83 221 C-89.6 221 -96.2 221 -103 221 Z M-82 221 C-82 227.6 -82 234.2 -82 241 C-75.4 241 -68.8 241 -62 241 C-62 234.4 -62 227.8 -62 221 C-68.6 221 -75.2 221 -82 221 Z M-61 221 C-61 227.6 -61 234.2 -61 241 C-54.73 241 -48.46 241 -42 241 C-42 234.4 -42 227.8 -42 221 C-48.27 221 -54.54 221 -61 221 Z M-40 221 C-40 227.6 -40 234.2 -40 241 C-33.73 241 -27.46 241 -21 241 C-21 234.4 -21 227.8 -21 221 C-27.27 221 -33.54 221 -40 221 Z " fill="#030303" transform="translate(194,14)"/>
<path d="M0 0 C0.33 0 0.66 0 1 0 C1 4.95 1 9.9 1 15 C3.64 15 6.28 15 9 15 C9 15.33 9 15.66 9 16 C6.36 16 3.72 16 1 16 C1 22.6 1 29.2 1 36 C3.64 36 6.28 36 9 36 C9 36.33 9 36.66 9 37 C6.36 37 3.72 37 1 37 C1 43.6 1 50.2 1 57 C7.6 57 14.2 57 21 57 C21 54.36 21 51.72 21 49 C21.33 49 21.66 49 22 49 C23.40995175 77.64901959 23.10028242 106.32559629 23 135 C20.625 135.625 20.625 135.625 18 136 C17.34 135.34 16.68 134.68 16 134 C17.65 134 19.3 134 21 134 C21 129.71 21 125.42 21 121 C14.4 121 7.8 121 1 121 C1 127.6 1 134.2 1 141 C3.64 141 6.28 141 9 141 C9 141.33 9 141.66 9 142 C6.36 142 3.72 142 1 142 C1 148.6 1 155.2 1 162 C3.97 162 6.94 162 10 162 C10 162.33 10 162.66 10 163 C7.03 163 4.06 163 1 163 C1 169.6 1 176.2 1 183 C3.97 183 6.94 183 10 183 C10 183.33 10 183.66 10 184 C7.03 184 4.06 184 1 184 C1 190.6 1 197.2 1 204 C7.6 204 14.2 204 21 204 C21 202.02 21 200.04 21 198 C21.33 198 21.66 198 22 198 C22 199.98 22 201.96 22 204 C28.6 204 35.2 204 42 204 C42 201.69 42 199.38 42 197 C42.33 197 42.66 197 43 197 C43 199.31 43 201.62 43 204 C49.6 204 56.2 204 63 204 C63 202.35 63 200.7 63 199 C63.33 199 63.66 199 64 199 C64 200.65 64 202.3 64 204 C70.6 204 77.2 204 84 204 C84 201.69 84 199.38 84 197 C84.33 197 84.66 197 85 197 C85 199.31 85 201.62 85 204 C91.27 204 97.54 204 104 204 C104 201.69 104 199.38 104 197 C104.66 197.33 105.32 197.66 106 198 C106 199.98 106 201.96 106 204 C112.27 204 118.54 204 125 204 C125 201.69 125 199.38 125 197 C125.66 197 126.32 197 127 197 C127 199.31 127 201.62 127 204 C133.27 204 139.54 204 146 204 C146 201.36 146 198.72 146 196 C146.66 196 147.32 196 148 196 C148 198.64 148 201.28 148 204 C154.27 204 160.54 204 167 204 C167 201.36 167 198.72 167 196 C167.66 196 168.32 196 169 196 C169 198.64 169 201.28 169 204 C170.32 204.33 171.64 204.66 173 205 C171.68 205 170.36 205 169 205 C169 206.32 169 207.64 169 209 C168.34 209 167.68 209 167 209 C167 207.68 167 206.36 167 205 C160.73 205 154.46 205 148 205 C148 210.61 148 216.22 148 222 C147.34 222.33 146.68 222.66 146 223 C146 217.06 146 211.12 146 205 C139.73 205 133.46 205 127 205 C127 211.6 127 218.2 127 225 C131.62 225 136.24 225 141 225 C141 225.33 141 225.66 141 226 C136.38 226 131.76 226 127 226 C127 227.65 127 229.3 127 231 C126.34 231 125.68 231 125 231 C125 229.35 125 227.7 125 226 C118.73 226 112.46 226 106 226 C106 229.3 106 232.6 106 236 C105.34 236 104.68 236 104 236 C104 232.7 104 229.4 104 226 C97.73 226 91.46 226 85 226 C85 229.63 85 233.26 85 237 C84.67 237 84.34 237 84 237 C84 233.37 84 229.74 84 226 C77.4 226 70.8 226 64 226 C64 229.3 64 232.6 64 236 C63.67 236 63.34 236 63 236 C63 232.7 63 229.4 63 226 C56.4 226 49.8 226 43 226 C42.67 227.32 42.34 228.64 42 230 C42 228.68 42 227.36 42 226 C38.04 226 34.08 226 30 226 C30 225.67 30 225.34 30 225 C33.96 225 37.92 225 42 225 C42 218.4 42 211.8 42 205 C35.4 205 28.8 205 22 205 C22 210.28 22 215.56 22 221 C21.67 221 21.34 221 21 221 C21 215.72 21 210.44 21 205 C14.4 205 7.8 205 1 205 C0.67 205.66 0.34 206.32 0 207 C0 206.34 0 205.68 0 205 C-0.66 204.67 -1.32 204.34 -2 204 C-1.34 204 -0.68 204 0 204 C0 197.4 0 190.8 0 184 C-6.93 184.33 -13.86 184.66 -21 185 C-22.22625047 182.54749907 -22.03425355 181.15689565 -21.87890625 178.4296875 C-21.83056641 177.53378906 -21.78222656 176.63789063 -21.73242188 175.71484375 C-21.67634766 174.77769531 -21.62027344 173.84054688 -21.5625 172.875 C-21.51029297 171.93011719 -21.45808594 170.98523438 -21.40429688 170.01171875 C-21.27443481 167.67420159 -21.13784835 165.33705979 -21 163 C-25.62 163 -30.24 163 -35 163 C-35 162.67 -35 162.34 -35 162 C-30.38 162 -25.76 162 -21 162 C-21 155.4 -21 148.8 -21 142 C-27.6 142 -34.2 142 -41 142 C-41.495 143.98 -41.495 143.98 -42 146 C-42.78653402 142.59698245 -43.08116649 139.62008956 -42.87890625 136.13671875 C-42.83056641 135.25048828 -42.78222656 134.36425781 -42.73242188 133.45117188 C-42.67634766 132.53916016 -42.62027344 131.62714844 -42.5625 130.6875 C-42.51029297 129.75615234 -42.45808594 128.82480469 -42.40429688 127.86523438 C-42.2751852 125.57643647 -42.14024585 123.28813814 -42 121 C-43.65 121 -45.3 121 -47 121 C-47 120.67 -47 120.34 -47 120 C-45.35 120 -43.7 120 -42 120 C-42 113.4 -42 106.8 -42 100 C-43.98 100 -45.96 100 -48 100 C-48 99.67 -48 99.34 -48 99 C-46.02 99 -44.04 99 -42 99 C-42 92.4 -42 85.8 -42 79 C-43.32 78.67 -44.64 78.34 -46 78 C-44.68 78 -43.36 78 -42 78 C-42 72.39 -42 66.78 -42 61 C-41.67 61 -41.34 61 -41 61 C-41 66.61 -41 72.22 -41 78 C-34.4 78 -27.8 78 -21 78 C-21 71.4 -21 64.8 -21 58 C-27.27 58 -33.54 58 -40 58 C-40 57.67 -40 57.34 -40 57 C-33.73 57 -27.46 57 -21 57 C-21 50.4 -21 43.8 -21 37 C-23.97 37 -26.94 37 -30 37 C-30 36.67 -30 36.34 -30 36 C-27.03 36 -24.06 36 -21 36 C-21 31.38 -21 26.76 -21 22 C-20.67 22 -20.34 22 -20 22 C-20 26.62 -20 31.24 -20 36 C-13.4 36 -6.8 36 0 36 C0 29.4 0 22.8 0 16 C-4.95 16 -9.9 16 -15 16 C-15 15.67 -15 15.34 -15 15 C-10.05 15 -5.1 15 0 15 C0 10.05 0 5.1 0 0 Z M-20 37 C-20 43.6 -20 50.2 -20 57 C-13.4 57 -6.8 57 0 57 C0 50.4 0 43.8 0 37 C-6.6 37 -13.2 37 -20 37 Z M-20 58 C-20 64.6 -20 71.2 -20 78 C-13.4 78 -6.8 78 0 78 C0 71.4 0 64.8 0 58 C-6.6 58 -13.2 58 -20 58 Z M1 58 C1 64.6 1 71.2 1 78 C7.6 78 14.2 78 21 78 C21 71.4 21 64.8 21 58 C14.4 58 7.8 58 1 58 Z M-41 79 C-41 85.6 -41 92.2 -41 99 C-34.4 99 -27.8 99 -21 99 C-21 92.4 -21 85.8 -21 79 C-27.6 79 -34.2 79 -41 79 Z M-20 79 C-20 85.6 -20 92.2 -20 99 C-13.4 99 -6.8 99 0 99 C0 92.4 0 85.8 0 79 C-6.6 79 -13.2 79 -20 79 Z M1 79 C1 85.6 1 92.2 1 99 C7.6 99 14.2 99 21 99 C21 92.4 21 85.8 21 79 C14.4 79 7.8 79 1 79 Z M-41 100 C-41 106.6 -41 113.2 -41 120 C-34.4 120 -27.8 120 -21 120 C-21 113.4 -21 106.8 -21 100 C-27.6 100 -34.2 100 -41 100 Z M-20 100 C-20 106.6 -20 113.2 -20 120 C-13.4 120 -6.8 120 0 120 C0 113.4 0 106.8 0 100 C-6.6 100 -13.2 100 -20 100 Z M1 100 C1 106.6 1 113.2 1 120 C7.6 120 14.2 120 21 120 C21 113.4 21 106.8 21 100 C14.4 100 7.8 100 1 100 Z M-41 121 C-41 127.6 -41 134.2 -41 141 C-34.4 141 -27.8 141 -21 141 C-21 134.4 -21 127.8 -21 121 C-27.6 121 -34.2 121 -41 121 Z M-20 121 C-20 127.6 -20 134.2 -20 141 C-13.4 141 -6.8 141 0 141 C0 134.4 0 127.8 0 121 C-6.6 121 -13.2 121 -20 121 Z M-20 142 C-20 148.6 -20 155.2 -20 162 C-13.4 162 -6.8 162 0 162 C0 155.4 0 148.8 0 142 C-6.6 142 -13.2 142 -20 142 Z M-20 163 C-20 169.6 -20 176.2 -20 183 C-13.4 183 -6.8 183 0 183 C0 176.4 0 169.8 0 163 C-6.6 163 -13.2 163 -20 163 Z M43 205 C43 211.6 43 218.2 43 225 C49.6 225 56.2 225 63 225 C63 218.4 63 211.8 63 205 C56.4 205 49.8 205 43 205 Z M64 205 C64 211.6 64 218.2 64 225 C70.6 225 77.2 225 84 225 C84 218.4 84 211.8 84 205 C77.4 205 70.8 205 64 205 Z M85 205 C85 211.6 85 218.2 85 225 C91.27 225 97.54 225 104 225 C104 218.4 104 211.8 104 205 C97.73 205 91.46 205 85 205 Z M106 205 C106 211.6 106 218.2 106 225 C112.27 225 118.54 225 125 225 C125 218.4 125 211.8 125 205 C118.73 205 112.46 205 106 205 Z " fill="#151515" transform="translate(48,30)"/>
<path d="M0 0 C0.66 0.33 1.32 0.66 2 1 C2 3.97 2 6.94 2 10 C6.95 10 11.9 10 17 10 C17 10.33 17 10.66 17 11 C12.05 11 7.1 11 2 11 C2 17.6 2 24.2 2 31 C8.27 31 14.54 31 21 31 C21 25.39 21 19.78 21 14 C21.66 14 22.32 14 23 14 C23 19.61 23 25.22 23 31 C28.61 31 34.22 31 40 31 C40 31.33 40 31.66 40 32 C34.39 32 28.78 32 23 32 C23 38.6 23 45.2 23 52 C29.27 52 35.54 52 42 52 C42 46.06 42 40.12 42 34 C42.99 34.495 42.99 34.495 44 35 C44 40.61 44 46.22 44 52 C47.63 52 51.26 52 55 52 C55 52.33 55 52.66 55 53 C51.37 53 47.74 53 44 53 C44 59.6 44 66.2 44 73 C50.27 73 56.54 73 63 73 C63.495 71.02 63.495 71.02 64 69 C65.00005304 72.00015912 65.11575585 73.97423756 65.09765625 77.10546875 C65.09282227 78.57983398 65.09282227 78.57983398 65.08789062 80.08398438 C65.07532227 81.62022461 65.07532227 81.62022461 65.0625 83.1875 C65.05798828 84.22326172 65.05347656 85.25902344 65.04882812 86.32617188 C65.0370401 88.88417266 65.02058515 91.44205733 65 94 C66.98 94 68.96 94 71 94 C71 94.33 71 94.66 71 95 C69.02 95 67.04 95 65 95 C65 101.6 65 108.2 65 115 C67.64 115 70.28 115 73 115 C73 115.33 73 115.66 73 116 C70.36 116 67.72 116 65 116 C65 122.6 65 129.2 65 136 C67.31 136 69.62 136 72 136 C72 136.33 72 136.66 72 137 C69.69 137 67.38 137 65 137 C65 143.6 65 150.2 65 157 C65.99 157.33 66.98 157.66 68 158 C67.01 158 66.02 158 65 158 C65.02320313 158.61488281 65.04640625 159.22976562 65.0703125 159.86328125 C65.08835937 160.67152344 65.10640625 161.47976562 65.125 162.3125 C65.14820313 163.11300781 65.17140625 163.91351563 65.1953125 164.73828125 C65 167 65 167 63 170 C63 166.04 63 162.08 63 158 C56.73 158 50.46 158 44 158 C44 164.6 44 171.2 44 178 C49.28 178 54.56 178 60 178 C60 178.33 60 178.66 60 179 C54.72 179 49.44 179 44 179 C44 185.6 44 192.2 44 199 C44.99 199.33 45.98 199.66 47 200 C46.01 200 45.02 200 44 200 C43.67 201.65 43.34 203.3 43 205 C42.67 205 42.34 205 42 205 C42 203.35 42 201.7 42 200 C37.38 200 32.76 200 28 200 C28 199.67 28 199.34 28 199 C32.62 199 37.24 199 42 199 C42 192.4 42 185.8 42 179 C36.72 179 31.44 179 26 179 C26 178.67 26 178.34 26 178 C31.28 178 36.56 178 42 178 C42 171.4 42 164.8 42 158 C35.73 158 29.46 158 23 158 C23 158.99 23 159.98 23 161 C22.34 161 21.68 161 21 161 C21 160.01 21 159.02 21 158 C17.04 158 13.08 158 9 158 C9 157.67 9 157.34 9 157 C12.96 157 16.92 157 21 157 C21 150.4 21 143.8 21 137 C14.73 137 8.46 137 2 137 C2 141.29 2 145.58 2 150 C1.34 150 0.68 150 0 150 C0 145.71 0 141.42 0 137 C-1.98 137 -3.96 137 -6 137 C-6 136.67 -6 136.34 -6 136 C-4.02 136 -2.04 136 0 136 C0 129.4 0 122.8 0 116 C-1.485 115.505 -1.485 115.505 -3 115 C-2.01 115 -1.02 115 0 115 C0 113.35 0 111.7 0 110 C0.66 110 1.32 110 2 110 C2 111.65 2 113.3 2 115 C8.27 115 14.54 115 21 115 C21 108.4 21 101.8 21 95 C18.03 95 15.06 95 12 95 C12 94.67 12 94.34 12 94 C14.97 94 17.94 94 21 94 C21 87.4 21 80.8 21 74 C17.7 74 14.4 74 11 74 C11 73.67 11 73.34 11 73 C14.3 73 17.6 73 21 73 C21 66.4 21 59.8 21 53 C18.03 53 15.06 53 12 53 C12 52.67 12 52.34 12 52 C14.97 52 17.94 52 21 52 C21 45.4 21 38.8 21 32 C14.73 32 8.46 32 2 32 C2 36.95 2 41.9 2 47 C1.34 47 0.68 47 0 47 C0 42.05 0 37.1 0 32 C-5.94 32 -11.88 32 -18 32 C-18 31.67 -18 31.34 -18 31 C-12.06 31 -6.12 31 0 31 C0 24.4 0 17.8 0 11 C-2.31 11 -4.62 11 -7 11 C-7 10.67 -7 10.34 -7 10 C-4.69 10 -2.38 10 0 10 C0 6.7 0 3.4 0 0 Z M23 53 C23 59.6 23 66.2 23 73 C29.27 73 35.54 73 42 73 C42 66.4 42 59.8 42 53 C35.73 53 29.46 53 23 53 Z M23 74 C23 80.6 23 87.2 23 94 C29.27 94 35.54 94 42 94 C42 87.4 42 80.8 42 74 C35.73 74 29.46 74 23 74 Z M44 74 C44 80.6 44 87.2 44 94 C50.27 94 56.54 94 63 94 C63 87.4 63 80.8 63 74 C56.73 74 50.46 74 44 74 Z M23 95 C23 101.6 23 108.2 23 115 C29.27 115 35.54 115 42 115 C42 108.4 42 101.8 42 95 C35.73 95 29.46 95 23 95 Z M44 95 C44 101.6 44 108.2 44 115 C50.27 115 56.54 115 63 115 C63 108.4 63 101.8 63 95 C56.73 95 50.46 95 44 95 Z M2 116 C2 122.6 2 129.2 2 136 C8.27 136 14.54 136 21 136 C21 129.4 21 122.8 21 116 C14.73 116 8.46 116 2 116 Z M23 116 C23 122.6 23 129.2 23 136 C29.27 136 35.54 136 42 136 C42 129.4 42 122.8 42 116 C35.73 116 29.46 116 23 116 Z M44 116 C44 122.6 44 129.2 44 136 C50.27 136 56.54 136 63 136 C63 129.4 63 122.8 63 116 C56.73 116 50.46 116 44 116 Z M23 137 C23 143.6 23 150.2 23 157 C29.27 157 35.54 157 42 157 C42 150.4 42 143.8 42 137 C35.73 137 29.46 137 23 137 Z M44 137 C44 143.6 44 150.2 44 157 C50.27 157 56.54 157 63 157 C63 150.4 63 143.8 63 137 C56.73 137 50.46 137 44 137 Z " fill="#373737" transform="translate(194,14)"/>
<path d="M0 0 C0.66 0 1.32 0 2 0 C2 2.64 2 5.28 2 8 C8.27 8 14.54 8 21 8 C21 5.36 21 2.72 21 0 C21.66 0 22.32 0 23 0 C23 2.64 23 5.28 23 8 C24.98 8.495 24.98 8.495 27 9 C25.68 9 24.36 9 23 9 C23 10.32 23 11.64 23 13 C22.34 13 21.68 13 21 13 C21 11.68 21 10.36 21 9 C14.73 9 8.46 9 2 9 C2 14.61 2 20.22 2 26 C1.34 26.33 0.68 26.66 0 27 C0 21.06 0 15.12 0 9 C-6.27 9 -12.54 9 -19 9 C-19 15.6 -19 22.2 -19 29 C-14.38 29 -9.76 29 -5 29 C-5 29.33 -5 29.66 -5 30 C-9.62 30 -14.24 30 -19 30 C-19 31.65 -19 33.3 -19 35 C-19.66 35 -20.32 35 -21 35 C-21 33.35 -21 31.7 -21 30 C-27.27 30 -33.54 30 -40 30 C-40 33.3 -40 36.6 -40 40 C-40.66 40 -41.32 40 -42 40 C-42 36.7 -42 33.4 -42 30 C-48.27 30 -54.54 30 -61 30 C-61 33.63 -61 37.26 -61 41 C-61.33 41 -61.66 41 -62 41 C-62 37.37 -62 33.74 -62 30 C-68.6 30 -75.2 30 -82 30 C-82 33.3 -82 36.6 -82 40 C-82.33 40 -82.66 40 -83 40 C-83 36.7 -83 33.4 -83 30 C-89.6 30 -96.2 30 -103 30 C-103.33 31.32 -103.66 32.64 -104 34 C-104 32.68 -104 31.36 -104 30 C-107.96 30 -111.92 30 -116 30 C-116 29.67 -116 29.34 -116 29 C-112.04 29 -108.08 29 -104 29 C-104 22.4 -104 15.8 -104 9 C-110.6 9 -117.2 9 -124 9 C-124 14.28 -124 19.56 -124 25 C-124.33 25 -124.66 25 -125 25 C-125 19.72 -125 14.44 -125 9 C-130.94 9 -136.88 9 -143 9 C-143 8.67 -143 8.34 -143 8 C-137.06 8 -131.12 8 -125 8 C-125 6.02 -125 4.04 -125 2 C-124.67 2 -124.34 2 -124 2 C-124 3.98 -124 5.96 -124 8 C-117.4 8 -110.8 8 -104 8 C-104 5.69 -104 3.38 -104 1 C-103.67 1 -103.34 1 -103 1 C-103 3.31 -103 5.62 -103 8 C-96.4 8 -89.8 8 -83 8 C-83 6.35 -83 4.7 -83 3 C-82.67 3 -82.34 3 -82 3 C-82 4.65 -82 6.3 -82 8 C-75.4 8 -68.8 8 -62 8 C-62 5.69 -62 3.38 -62 1 C-61.67 1 -61.34 1 -61 1 C-61 3.31 -61 5.62 -61 8 C-54.73 8 -48.46 8 -42 8 C-42 5.69 -42 3.38 -42 1 C-41.01 1.495 -41.01 1.495 -40 2 C-40 3.98 -40 5.96 -40 8 C-33.73 8 -27.46 8 -21 8 C-21 5.69 -21 3.38 -21 1 C-20.34 1 -19.68 1 -19 1 C-19 3.31 -19 5.62 -19 8 C-12.73 8 -6.46 8 0 8 C0 5.36 0 2.72 0 0 Z M-103 9 C-103 15.6 -103 22.2 -103 29 C-96.4 29 -89.8 29 -83 29 C-83 22.4 -83 15.8 -83 9 C-89.6 9 -96.2 9 -103 9 Z M-82 9 C-82 15.6 -82 22.2 -82 29 C-75.4 29 -68.8 29 -62 29 C-62 22.4 -62 15.8 -62 9 C-68.6 9 -75.2 9 -82 9 Z M-61 9 C-61 15.6 -61 22.2 -61 29 C-54.73 29 -48.46 29 -42 29 C-42 22.4 -42 15.8 -42 9 C-48.27 9 -54.54 9 -61 9 Z M-40 9 C-40 15.6 -40 22.2 -40 29 C-33.73 29 -27.46 29 -21 29 C-21 22.4 -21 15.8 -21 9 C-27.27 9 -33.54 9 -40 9 Z " fill="#2D2D2D" transform="translate(194,226)"/>
<path d="M0 0 C0.66 0 1.32 0 2 0 C2 1.65 2 3.3 2 5 C4.64 5 7.28 5 10 5 C10 5.33 10 5.66 10 6 C7.36 6 4.72 6 2 6 C2 12.6 2 19.2 2 26 C8.27 26 14.54 26 21 26 C21 24.02 21 22.04 21 20 C21.66 20.33 22.32 20.66 23 21 C23 22.65 23 24.3 23 26 C29.27 26 35.54 26 42 26 C42 25.01 42 24.02 42 23 C42.66 23 43.32 23 44 23 C44 23.99 44 24.98 44 26 C49.94 26 55.88 26 62 26 C62 26.33 62 26.66 62 27 C56.06 27 50.12 27 44 27 C44 33.6 44 40.2 44 47 C49.94 47 55.88 47 62 47 C62 47.33 62 47.66 62 48 C56.06 48 50.12 48 44 48 C44 54.6 44 61.2 44 68 C49.28 68 54.56 68 60 68 C60 68.33 60 68.66 60 69 C54.72 69 49.44 69 44 69 C44 75.6 44 82.2 44 89 C44.99 89.33 45.98 89.66 47 90 C46.01 90 45.02 90 44 90 C43.67 91.65 43.34 93.3 43 95 C42.67 95 42.34 95 42 95 C42 93.35 42 91.7 42 90 C37.38 90 32.76 90 28 90 C28 89.67 28 89.34 28 89 C32.62 89 37.24 89 42 89 C42 82.4 42 75.8 42 69 C36.72 69 31.44 69 26 69 C26 68.67 26 68.34 26 68 C31.28 68 36.56 68 42 68 C42 61.4 42 54.8 42 48 C35.73 48 29.46 48 23 48 C23 48.99 23 49.98 23 51 C22.34 51 21.68 51 21 51 C21 50.01 21 49.02 21 48 C17.04 48 13.08 48 9 48 C9 47.67 9 47.34 9 47 C12.96 47 16.92 47 21 47 C21 40.4 21 33.8 21 27 C14.73 27 8.46 27 2 27 C2 31.29 2 35.58 2 40 C1.34 40 0.68 40 0 40 C0 35.71 0 31.42 0 27 C-1.98 27 -3.96 27 -6 27 C-6 26.67 -6 26.34 -6 26 C-4.02 26 -2.04 26 0 26 C0 19.4 0 12.8 0 6 C-0.99 5.67 -1.98 5.34 -3 5 C-2.01 5 -1.02 5 0 5 C0 3.35 0 1.7 0 0 Z M23 27 C23 33.6 23 40.2 23 47 C29.27 47 35.54 47 42 47 C42 40.4 42 33.8 42 27 C35.73 27 29.46 27 23 27 Z " fill="#454544" transform="translate(194,124)"/>
<path d="M0 0 C0.33 0.99 0.66 1.98 1 3 C7.27 3 13.54 3 20 3 C20 2.34 20 1.68 20 1 C20.66 1 21.32 1 22 1 C22 1.66 22 2.32 22 3 C25.96 3 29.92 3 34 3 C34 3.33 34 3.66 34 4 C30.04 4 26.08 4 22 4 C22 10.6 22 17.2 22 24 C28.27 24 34.54 24 41 24 C41 18.06 41 12.12 41 6 C41.66 6 42.32 6 43 6 C43 11.94 43 17.88 43 24 C46.96 24 50.92 24 55 24 C55 24.33 55 24.66 55 25 C51.04 25 47.08 25 43 25 C43 30.94 43 36.88 43 43 C41 41 41 41 40.8046875 37.3046875 C40.8161291 35.82798332 40.84210093 34.35138199 40.875 32.875 C40.91625 30.27625 40.9575 27.6775 41 25 C34.73 25 28.46 25 22 25 C22 30.61 22 36.22 22 42 C21.67 42 21.34 42 21 42 C20.67 36.39 20.34 30.78 20 25 C13.73 25 7.46 25 1 25 C1 31.6 1 38.2 1 45 C0.67 45 0.34 45 0 45 C0 38.4 0 31.8 0 25 C-6.6 25 -13.2 25 -20 25 C-20 31.6 -20 38.2 -20 45 C-20.33 45 -20.66 45 -21 45 C-21 38.4 -21 31.8 -21 25 C-23.31 25 -25.62 25 -28 25 C-28 24.67 -28 24.34 -28 24 C-25.69 24 -23.38 24 -21 24 C-21 17.4 -21 10.8 -21 4 C-24.3 4 -27.6 4 -31 4 C-31 3.67 -31 3.34 -31 3 C-27.7 3 -24.4 3 -21 3 C-20.67 2.34 -20.34 1.68 -20 1 C-20 1.66 -20 2.32 -20 3 C-13.4 3 -6.8 3 0 3 C0 2.01 0 1.02 0 0 Z M-20 4 C-20 10.6 -20 17.2 -20 24 C-13.4 24 -6.8 24 0 24 C0 17.4 0 10.8 0 4 C-6.6 4 -13.2 4 -20 4 Z M1 4 C1 10.6 1 17.2 1 24 C7.27 24 13.54 24 20 24 C20 17.4 20 10.8 20 4 C13.73 4 7.46 4 1 4 Z " fill="#1C1C1C" transform="translate(132,0)"/>
<path d="M0 0 C0.66 0.33 1.32 0.66 2 1 C2 3.97 2 6.94 2 10 C6.95 10 11.9 10 17 10 C17 10.33 17 10.66 17 11 C12.05 11 7.1 11 2 11 C2 17.6 2 24.2 2 31 C8.27 31 14.54 31 21 31 C21 25.39 21 19.78 21 14 C21.66 14 22.32 14 23 14 C23 19.61 23 25.22 23 31 C28.61 31 34.22 31 40 31 C40 31.33 40 31.66 40 32 C34.39 32 28.78 32 23 32 C23 38.6 23 45.2 23 52 C29.27 52 35.54 52 42 52 C42 46.06 42 40.12 42 34 C42.99 34.495 42.99 34.495 44 35 C44 40.61 44 46.22 44 52 C47.63 52 51.26 52 55 52 C55 52.33 55 52.66 55 53 C51.37 53 47.74 53 44 53 C44 57.62 44 62.24 44 67 C43.34 67 42.68 67 42 67 C42 62.38 42 57.76 42 53 C35.73 53 29.46 53 23 53 C23 53.99 23 54.98 23 56 C22.34 56 21.68 56 21 56 C21 55.01 21 54.02 21 53 C18.03 53 15.06 53 12 53 C12 52.67 12 52.34 12 52 C14.97 52 17.94 52 21 52 C21 45.4 21 38.8 21 32 C14.73 32 8.46 32 2 32 C2 36.95 2 41.9 2 47 C1.34 47 0.68 47 0 47 C0 42.05 0 37.1 0 32 C-5.94 32 -11.88 32 -18 32 C-18 31.67 -18 31.34 -18 31 C-12.06 31 -6.12 31 0 31 C0 24.4 0 17.8 0 11 C-2.31 11 -4.62 11 -7 11 C-7 10.67 -7 10.34 -7 10 C-4.69 10 -2.38 10 0 10 C0 6.7 0 3.4 0 0 Z " fill="#424242" transform="translate(194,14)"/>
<path d="M0 0 C0.66 0 1.32 0 2 0 C2 0.99 2 1.98 2 3 C7.28 3 12.56 3 18 3 C18 3.33 18 3.66 18 4 C12.72 4 7.44 4 2 4 C2 10.6 2 17.2 2 24 C8.27 24 14.54 24 21 24 C21 18.06 21 12.12 21 6 C21.66 6 22.32 6 23 6 C23 11.94 23 17.88 23 24 C25.64 24 28.28 24 31 24 C31 24.33 31 24.66 31 25 C28.36 25 25.72 25 23 25 C23 31.6 23 38.2 23 45 C25.31 45 27.62 45 30 45 C30 45.33 30 45.66 30 46 C27.69 46 25.38 46 23 46 C23 52.6 23 59.2 23 66 C24.485 66.495 24.485 66.495 26 67 C25.01 67 24.02 67 23 67 C23.02320313 67.61488281 23.04640625 68.22976562 23.0703125 68.86328125 C23.09738281 70.07564453 23.09738281 70.07564453 23.125 71.3125 C23.14820313 72.11300781 23.17140625 72.91351563 23.1953125 73.73828125 C23 76 23 76 21 79 C19.1318231 61.01879731 19.96358692 43.00767721 21 25 C14.73 25 8.46 25 2 25 C2 30.61 2 36.22 2 42 C1.34 42 0.68 42 0 42 C-1.00295343 29.22391633 -0.86732046 16.78296925 0 4 C-2.31 4 -4.62 4 -7 4 C-7 3.67 -7 3.34 -7 3 C-4.69 3 -2.38 3 0 3 C0 2.01 0 1.02 0 0 Z " fill="#3D3E3F" transform="translate(236,105)"/>
<path d="M0 0 C0.33 0 0.66 0 1 0 C1 2.31 1 4.62 1 7 C7.6 7 14.2 7 21 7 C21 5.35 21 3.7 21 2 C21.33 2 21.66 2 22 2 C22 3.65 22 5.3 22 7 C28.6 7 35.2 7 42 7 C42 4.69 42 2.38 42 0 C42.33 0 42.66 0 43 0 C43 2.31 43 4.62 43 7 C43.99 7.33 44.98 7.66 46 8 C45.01 8 44.02 8 43 8 C43.03552979 8.57854736 43.07105957 9.15709473 43.10766602 9.75317383 C44.37280439 30.98173114 44.37280439 30.98173114 43 40 C42.67 40 42.34 40 42 40 C42 36.37 42 32.74 42 29 C35.4 29 28.8 29 22 29 C22 32.3 22 35.6 22 39 C21.67 39 21.34 39 21 39 C21 35.7 21 32.4 21 29 C14.4 29 7.8 29 1 29 C0.67 30.32 0.34 31.64 0 33 C0 31.68 0 30.36 0 29 C-3.96 29 -7.92 29 -12 29 C-12 28.67 -12 28.34 -12 28 C-8.04 28 -4.08 28 0 28 C0 21.4 0 14.8 0 8 C-6.6 8 -13.2 8 -20 8 C-20 13.28 -20 18.56 -20 24 C-20.33 24 -20.66 24 -21 24 C-21 18.72 -21 13.44 -21 8 C-26.94 8 -32.88 8 -39 8 C-39 7.67 -39 7.34 -39 7 C-33.06 7 -27.12 7 -21 7 C-21 5.02 -21 3.04 -21 1 C-20.67 1 -20.34 1 -20 1 C-20 2.98 -20 4.96 -20 7 C-13.4 7 -6.8 7 0 7 C0 4.69 0 2.38 0 0 Z M1 8 C1 14.6 1 21.2 1 28 C7.6 28 14.2 28 21 28 C21 21.4 21 14.8 21 8 C14.4 8 7.8 8 1 8 Z M22 8 C22 14.6 22 21.2 22 28 C28.6 28 35.2 28 42 28 C42 21.4 42 14.8 42 8 C35.4 8 28.8 8 22 8 Z " fill="#242424" transform="translate(90,227)"/>
<path d="M0 0 C0.33 0 0.66 0 1 0 C1 2.64 1 5.28 1 8 C7.27 8 13.54 8 20 8 C20.33 7.01 20.66 6.02 21 5 C21.495 6.485 21.495 6.485 22 8 C24.31 8 26.62 8 29 8 C29 8.33 29 8.66 29 9 C26.69 9 24.38 9 22 9 C22 15.6 22 22.2 22 29 C24.64 29 27.28 29 30 29 C30 29.33 30 29.66 30 30 C27.36 30 24.72 30 22 30 C21.505 31.485 21.505 31.485 21 33 C20.67 32.01 20.34 31.02 20 30 C13.73 30 7.46 30 1 30 C1 31.32 1 32.64 1 34 C1.66 34.33 2.32 34.66 3 35 C2.01 35 1.02 35 0 35 C0 33.35 0 31.7 0 30 C-6.6 30 -13.2 30 -20 30 C-20.33 30.99 -20.66 31.98 -21 33 C-21 32.01 -21 31.02 -21 30 C-23.64 30 -26.28 30 -29 30 C-29 29.67 -29 29.34 -29 29 C-26.36 29 -23.72 29 -21 29 C-21 22.4 -21 15.8 -21 9 C-23.97 9 -26.94 9 -30 9 C-30 8.67 -30 8.34 -30 8 C-27.03 8 -24.06 8 -21 8 C-20.67 7.01 -20.34 6.02 -20 5 C-20 5.99 -20 6.98 -20 8 C-13.4 8 -6.8 8 0 8 C0 5.36 0 2.72 0 0 Z M-20 9 C-20 15.6 -20 22.2 -20 29 C-13.4 29 -6.8 29 0 29 C0 22.4 0 15.8 0 9 C-6.6 9 -13.2 9 -20 9 Z M1 9 C1 15.6 1 22.2 1 29 C7.27 29 13.54 29 20 29 C20 22.4 20 15.8 20 9 C13.73 9 7.46 9 1 9 Z " fill="#0E0C0C" transform="translate(132,79)"/>
<path d="M0 0 C0.66 0 1.32 0 2 0 C2 1.65 2 3.3 2 5 C8.27 5 14.54 5 21 5 C21.33 3.35 21.66 1.7 22 0 C22.33 0 22.66 0 23 0 C23 1.65 23 3.3 23 5 C28.94 5 34.88 5 41 5 C41 5.33 41 5.66 41 6 C35.06 6 29.12 6 23 6 C23 12.6 23 19.2 23 26 C28.28 26 33.56 26 39 26 C39 26.33 39 26.66 39 27 C33.72 27 28.44 27 23 27 C23 33.6 23 40.2 23 47 C23.99 47.33 24.98 47.66 26 48 C25.01 48 24.02 48 23 48 C22.67 49.65 22.34 51.3 22 53 C21.67 53 21.34 53 21 53 C21 51.35 21 49.7 21 48 C16.38 48 11.76 48 7 48 C7 47.67 7 47.34 7 47 C11.62 47 16.24 47 21 47 C21 40.4 21 33.8 21 27 C15.72 27 10.44 27 5 27 C5 26.67 5 26.34 5 26 C10.28 26 15.56 26 21 26 C21 19.4 21 12.8 21 6 C14.73 6 8.46 6 2 6 C2 6.99 2 7.98 2 9 C1.34 9 0.68 9 0 9 C0 8.01 0 7.02 0 6 C-3.96 6 -7.92 6 -12 6 C-12 5.67 -12 5.34 -12 5 C-8.04 5 -4.08 5 0 5 C0 3.35 0 1.7 0 0 Z " fill="#505050" transform="translate(215,166)"/>
<path d="M0 0 C0.33 0.66 0.66 1.32 1 2 C11.395 1.505 11.395 1.505 22 1 C22 8.26 22 15.52 22 23 C30.415 22.505 30.415 22.505 39 22 C38.67 23.32 38.34 24.64 38 26 C38 25.34 38 24.68 38 24 C32.72 24 27.44 24 22 24 C22 30.6 22 37.2 22 44 C28.27 44 34.54 44 41 44 C41 41.03 41 38.06 41 35 C43.29013653 38.4352048 43.17842973 39.985331 43 44 C44.98 44 46.96 44 49 44 C49 44.33 49 44.66 49 45 C47.02 45 45.04 45 43 45 C43 47.97 43 50.94 43 54 C42.01 53.505 42.01 53.505 41 53 C41 50.36 41 47.72 41 45 C34.73 45 28.46 45 22 45 C22 48.3 22 51.6 22 55 C21.67 55 21.34 55 21 55 C21 51.7 21 48.4 21 45 C15.72 45 10.44 45 5 45 C5 44.67 5 44.34 5 44 C10.28 44 15.56 44 21 44 C21 37.4 21 30.8 21 24 C15.06 24.33 9.12 24.66 3 25 C3 23.35 3 21.7 3 20 C3.33 20.99 3.66 21.98 4 23 C9.61 23 15.22 23 21 23 C21 16.4 21 9.8 21 3 C14.4 3 7.8 3 1 3 C1 6.3 1 9.6 1 13 C0.67 13 0.34 13 0 13 C0 9.7 0 6.4 0 3 C-1.32 2.67 -2.64 2.34 -4 2 C-2.68 2 -1.36 2 0 2 C0 1.34 0 0.68 0 0 Z " fill="#131313" transform="translate(111,148)"/>
<path d="M0 0 C9.24 0 18.48 0 28 0 C28 0.33 28 0.66 28 1 C24.37 1 20.74 1 17 1 C17 7.6 17 14.2 17 21 C20.96 21 24.92 21 29 21 C29 21.33 29 21.66 29 22 C25.04 22 21.08 22 17 22 C17 28.6 17 35.2 17 42 C22.61 42 28.22 42 34 42 C34 42.33 34 42.66 34 43 C28.39 43 22.78 43 17 43 C17 49.6 17 56.2 17 63 C19.64 63 22.28 63 25 63 C25 63.33 25 63.66 25 64 C22.36 64 19.72 64 17 64 C17 70.6 17 77.2 17 84 C19.97 84 22.94 84 26 84 C26 84.33 26 84.66 26 85 C23.03 85 20.06 85 17 85 C17 86.98 17 88.96 17 91 C16.67 91 16.34 91 16 91 C16 89.02 16 87.04 16 85 C12.04 85 8.08 85 4 85 C4 84.67 4 84.34 4 84 C7.96 84 11.92 84 16 84 C16 77.4 16 70.8 16 64 C11.71 64 7.42 64 3 64 C3 63.67 3 63.34 3 63 C7.29 63 11.58 63 16 63 C16 56.4 16 49.8 16 43 C12.37 43 8.74 43 5 43 C5 42.67 5 42.34 5 42 C8.63 42 12.26 42 16 42 C16 35.4 16 28.8 16 22 C13.36 22 10.72 22 8 22 C8 21.67 8 21.34 8 21 C10.64 21 13.28 21 16 21 C16 14.4 16 7.8 16 1 C10.72 1 5.44 1 0 1 C0 0.67 0 0.34 0 0 Z " fill="#1D1D1D" transform="translate(32,108)"/>
<path d="M0 0 C0.66 0 1.32 0 2 0 C2 2.64 2 5.28 2 8 C8.27 8 14.54 8 21 8 C21 5.36 21 2.72 21 0 C21.66 0 22.32 0 23 0 C23 2.64 23 5.28 23 8 C24.32 8.33 25.64 8.66 27 9 C25.68 9 24.36 9 23 9 C23 10.32 23 11.64 23 13 C22.34 13 21.68 13 21 13 C21 11.68 21 10.36 21 9 C14.73 9 8.46 9 2 9 C2 14.61 2 20.22 2 26 C1.01 26.495 1.01 26.495 0 27 C0 21.06 0 15.12 0 9 C-6.27 9 -12.54 9 -19 9 C-19 10.65 -19 12.3 -19 14 C-19.66 14 -20.32 14 -21 14 C-21 12.35 -21 10.7 -21 9 C-26.61 9 -32.22 9 -38 9 C-38 8.67 -38 8.34 -38 8 C-32.39 8 -26.78 8 -21 8 C-21 5.69 -21 3.38 -21 1 C-20.34 1 -19.68 1 -19 1 C-19 3.31 -19 5.62 -19 8 C-12.73 8 -6.46 8 0 8 C0 5.36 0 2.72 0 0 Z " fill="#595959" transform="translate(194,226)"/>
<path d="M0 0 C0.66 0 1.32 0 2 0 C2 6.6 2 13.2 2 20 C8.27 20 14.54 20 21 20 C21 14.06 21 8.12 21 2 C21.66 2.33 22.32 2.66 23 3 C23 8.61 23 14.22 23 20 C26.63 20 30.26 20 34 20 C34 20.33 34 20.66 34 21 C30.37 21 26.74 21 23 21 C23 25.62 23 30.24 23 35 C22.34 35 21.68 35 21 35 C21 30.38 21 25.76 21 21 C14.73 21 8.46 21 2 21 C2 21.99 2 22.98 2 24 C1.34 24 0.68 24 0 24 C0 23.01 0 22.02 0 21 C-2.97 21 -5.94 21 -9 21 C-9 20.67 -9 20.34 -9 20 C-6.03 20 -3.06 20 0 20 C0 13.4 0 6.8 0 0 Z " fill="#535352" transform="translate(215,46)"/>
<path d="M0 0 C0.33 0 0.66 0 1 0 C1 5.61 1 11.22 1 17 C2.65 17 4.3 17 6 17 C6 17.33 6 17.66 6 18 C4.35 18 2.7 18 1 18 C1.08378906 19.28390625 1.16757813 20.5678125 1.25390625 21.890625 C1.99582122 34.3559836 1.86950498 46.54601327 1 59 C4.63 59 8.26 59 12 59 C12 59.33 12 59.66 12 60 C8.37 60 4.74 60 1 60 C1 66.6 1 73.2 1 80 C3.97 80 6.94 80 10 80 C10 80.33 10 80.66 10 81 C7.03 81 4.06 81 1 81 C0.67 82.32 0.34 83.64 0 85 C-0.78653402 81.59698245 -1.08116649 78.62008956 -0.87890625 75.13671875 C-0.83056641 74.25048828 -0.78222656 73.36425781 -0.73242188 72.45117188 C-0.64831055 71.0831543 -0.64831055 71.0831543 -0.5625 69.6875 C-0.51029297 68.75615234 -0.45808594 67.82480469 -0.40429688 66.86523438 C-0.2751852 64.57643647 -0.14024585 62.28813814 0 60 C-1.65 60 -3.3 60 -5 60 C-5 59.67 -5 59.34 -5 59 C-3.35 59 -1.7 59 0 59 C0 52.4 0 45.8 0 39 C-1.98 39 -3.96 39 -6 39 C-6 38.67 -6 38.34 -6 38 C-4.02 38 -2.04 38 0 38 C0 31.4 0 24.8 0 18 C-1.32 17.67 -2.64 17.34 -4 17 C-2.68 17 -1.36 17 0 17 C0 11.39 0 5.78 0 0 Z " fill="#0F0F0F" transform="translate(6,91)"/>
<path d="M0 0 C0.33 0 0.66 0 1 0 C2.40995175 28.64901959 2.10028242 57.32559629 2 86 C-0.375 86.625 -0.375 86.625 -3 87 C-3.66 86.34 -4.32 85.68 -5 85 C-3.35 85 -1.7 85 0 85 C0 80.71 0 76.42 0 72 C-0.99 71.67 -1.98 71.34 -3 71 C-2.01 71 -1.02 71 0 71 C0 64.4 0 57.8 0 51 C-2.64 51 -5.28 51 -8 51 C-8 50.67 -8 50.34 -8 50 C-5.36 50 -2.72 50 0 50 C0 43.4 0 36.8 0 30 C-2.97 30 -5.94 30 -9 30 C-9 29.67 -9 29.34 -9 29 C-6.03 29 -3.06 29 0 29 C0 22.4 0 15.8 0 9 C-2.64 9 -5.28 9 -8 9 C-8 8.67 -8 8.34 -8 8 C-5.36 8 -2.72 8 0 8 C0 5.36 0 2.72 0 0 Z " fill="#100F10" transform="translate(69,79)"/>
<path d="M0 0 C0.33 0 0.66 0 1 0 C1 2.31 1 4.62 1 7 C7.6 7 14.2 7 21 7 C21 5.35 21 3.7 21 2 C21.33 2 21.66 2 22 2 C22 3.65 22 5.3 22 7 C27.94 7 33.88 7 40 7 C40 7.33 40 7.66 40 8 C34.06 8 28.12 8 22 8 C21.67 8.99 21.34 9.98 21 11 C21 10.01 21 9.02 21 8 C14.4 8 7.8 8 1 8 C0.67 8.99 0.34 9.98 0 11 C0 10.01 0 9.02 0 8 C-6.6 8 -13.2 8 -20 8 C-20 13.28 -20 18.56 -20 24 C-20.33 24 -20.66 24 -21 24 C-21 18.72 -21 13.44 -21 8 C-26.94 8 -32.88 8 -39 8 C-39 7.67 -39 7.34 -39 7 C-33.06 7 -27.12 7 -21 7 C-21 5.02 -21 3.04 -21 1 C-20.67 1 -20.34 1 -20 1 C-20 2.98 -20 4.96 -20 7 C-13.4 7 -6.8 7 0 7 C0 4.69 0 2.38 0 0 Z " fill="#404040" transform="translate(90,227)"/>
<path d="M0 0 C0.33 0.99 0.66 1.98 1 3 C7.27 3 13.54 3 20 3 C20 2.34 20 1.68 20 1 C20.66 1 21.32 1 22 1 C21.67 7.6 21.34 14.2 21 21 C20.67 21 20.34 21 20 21 C20 15.39 20 9.78 20 4 C13.73 4 7.46 4 1 4 C1 10.27 1 16.54 1 23 C0.67 23 0.34 23 0 23 C0 16.73 0 10.46 0 4 C-6.6 4 -13.2 4 -20 4 C-20 10.6 -20 17.2 -20 24 C-20.33 24 -20.66 24 -21 24 C-21 17.4 -21 10.8 -21 4 C-24.3 4 -27.6 4 -31 4 C-31 3.67 -31 3.34 -31 3 C-27.7 3 -24.4 3 -21 3 C-20.67 2.34 -20.34 1.68 -20 1 C-20 1.66 -20 2.32 -20 3 C-13.4 3 -6.8 3 0 3 C0 2.01 0 1.02 0 0 Z " fill="#090909" transform="translate(132,0)"/>
<path d="M0 0 C0.33 0 0.66 0 1 0 C1 5.61 1 11.22 1 17 C5.29 17 9.58 17 14 17 C14 17.33 14 17.66 14 18 C9.71 18 5.42 18 1 18 C1 23.94 1 29.88 1 36 C0.67 36 0.34 36 0 36 C0 30.06 0 24.12 0 18 C-6.6 18 -13.2 18 -20 18 C-19.67 24.93 -19.34 31.86 -19 39 C-19.66 39 -20.32 39 -21 39 C-21 32.07 -21 25.14 -21 18 C-25.29 18 -29.58 18 -34 18 C-34 17.67 -34 17.34 -34 17 C-29.71 17 -25.42 17 -21 17 C-21 14.36 -21 11.72 -21 9 C-20.67 9 -20.34 9 -20 9 C-20 11.64 -20 14.28 -20 17 C-13.4 17 -6.8 17 0 17 C0 11.39 0 5.78 0 0 Z " fill="#0E0E0D" transform="translate(90,7)"/>
<path d="M0 0 C0.66 0 1.32 0 2 0 C2 0.99 2 1.98 2 3 C7.28 3 12.56 3 18 3 C18 3.33 18 3.66 18 4 C12.72 4 7.44 4 2 4 C2 16.54 2 29.08 2 42 C1.34 42 0.68 42 0 42 C-1.00295343 29.22391633 -0.86732046 16.78296925 0 4 C-2.31 4 -4.62 4 -7 4 C-7 3.67 -7 3.34 -7 3 C-4.69 3 -2.38 3 0 3 C0 2.01 0 1.02 0 0 Z " fill="#444444" transform="translate(236,105)"/>
<path d="M0 0 C0.66 0 1.32 0 2 0 C2 1.65 2 3.3 2 5 C4.64 5 7.28 5 10 5 C10 5.33 10 5.66 10 6 C7.36 6 4.72 6 2 6 C2.05329468 6.8521106 2.05329468 6.8521106 2.10766602 7.72143555 C2.76532117 18.58317587 3.306567 29.16554444 2 40 C1.34 40 0.68 40 0 40 C0 35.71 0 31.42 0 27 C-1.98 27 -3.96 27 -6 27 C-6 26.67 -6 26.34 -6 26 C-4.02 26 -2.04 26 0 26 C0 19.4 0 12.8 0 6 C-0.99 5.67 -1.98 5.34 -3 5 C-2.01 5 -1.02 5 0 5 C0 3.35 0 1.7 0 0 Z " fill="#606060" transform="translate(194,124)"/>
<path d="M0 0 C9.57 0 19.14 0 29 0 C29 0.66 29 1.32 29 2 C23.72 2 18.44 2 13 2 C13 7.94 13 13.88 13 20 C13.99 20.33 14.98 20.66 16 21 C12.71023192 22.09658936 11.28696233 21.79953138 8 21 C8.99 20.67 9.98 20.34 11 20 C10.67 14.06 10.34 8.12 10 2 C6.7 1.67 3.4 1.34 0 1 C0 0.67 0 0.34 0 0 Z " fill="#100B0D" transform="translate(162,128)"/>
<path d="M0 0 C0.66 0 1.32 0 2 0 C2 5.94 2 11.88 2 18 C5.96 18 9.92 18 14 18 C14 18.33 14 18.66 14 19 C10.04 19 6.08 19 2 19 C2 24.94 2 30.88 2 37 C0 35 0 35 -0.1953125 31.3046875 C-0.182009 29.82799892 -0.15814835 28.35137642 -0.125 26.875 C-0.11597656 26.12089844 -0.10695312 25.36679687 -0.09765625 24.58984375 C-0.0740687 22.72642746 -0.03819719 20.86317407 0 19 C-2.64 19 -5.28 19 -8 19 C-8 18.67 -8 18.34 -8 18 C-5.36 18 -2.72 18 0 18 C0 12.06 0 6.12 0 0 Z " fill="#292929" transform="translate(173,6)"/>
<path d="M0 0 C0.33 0 0.66 0 1 0 C1 4.95 1 9.9 1 15 C3.64 15 6.28 15 9 15 C9 15.33 9 15.66 9 16 C6.36 16 3.72 16 1 16 C1 22.6 1 29.2 1 36 C3.64 36 6.28 36 9 36 C9 36.33 9 36.66 9 37 C6.36 37 3.72 37 1 37 C0.67 37.99 0.34 38.98 0 40 C0 39.01 0 38.02 0 37 C-5.94 37 -11.88 37 -18 37 C-18 36.67 -18 36.34 -18 36 C-12.06 36 -6.12 36 0 36 C0 29.4 0 22.8 0 16 C-4.95 16 -9.9 16 -15 16 C-15 15.67 -15 15.34 -15 15 C-10.05 15 -5.1 15 0 15 C0 10.05 0 5.1 0 0 Z " fill="#1C1B1B" transform="translate(48,30)"/>
<path d="M0 0 C2.29013653 3.4352048 2.17842973 4.985331 2 9 C3.98 9 5.96 9 8 9 C8 9.33 8 9.66 8 10 C6.02 10 4.04 10 2 10 C2 12.97 2 15.94 2 19 C1.34 18.67 0.68 18.34 0 18 C0 15.36 0 12.72 0 10 C-6.27 10 -12.54 10 -19 10 C-19 13.3 -19 16.6 -19 20 C-19.33 20 -19.66 20 -20 20 C-20 16.7 -20 13.4 -20 10 C-25.28 10 -30.56 10 -36 10 C-36 9.67 -36 9.34 -36 9 C-30.72 9 -25.44 9 -20 9 C-19.67 8.34 -19.34 7.68 -19 7 C-19 7.66 -19 8.32 -19 9 C-12.73 9 -6.46 9 0 9 C0 6.03 0 3.06 0 0 Z " fill="#333333" transform="translate(152,183)"/>
<path d="M0 0 C0.33 0 0.66 0 1 0 C1 2.64 1 5.28 1 8 C7.27 8 13.54 8 20 8 C20.33 7.01 20.66 6.02 21 5 C21.495 6.485 21.495 6.485 22 8 C24.31 8 26.62 8 29 8 C29 8.33 29 8.66 29 9 C26.69 9 24.38 9 22 9 C22 9.99 22 10.98 22 12 C21.34 12 20.68 12 20 12 C20 11.01 20 10.02 20 9 C13.73 9 7.46 9 1 9 C0.67 9.99 0.34 10.98 0 12 C0 11.01 0 10.02 0 9 C-6.6 9 -13.2 9 -20 9 C-20.33 10.32 -20.66 11.64 -21 13 C-21 11.68 -21 10.36 -21 9 C-23.97 9 -26.94 9 -30 9 C-30 8.67 -30 8.34 -30 8 C-27.03 8 -24.06 8 -21 8 C-20.67 7.01 -20.34 6.02 -20 5 C-20 5.99 -20 6.98 -20 8 C-13.4 8 -6.8 8 0 8 C0 5.36 0 2.72 0 0 Z " fill="#181516" transform="translate(132,79)"/>
<path d="M0 0 C0 0.33 0 0.66 0 1 C-2.97 1 -5.94 1 -9 1 C-9 7.6 -9 14.2 -9 21 C-9.33 21 -9.66 21 -10 21 C-10 14.4 -10 7.8 -10 1 C-16.6 1 -23.2 1 -30 1 C-30 7.6 -30 14.2 -30 21 C-30.33 21 -30.66 21 -31 21 C-31 14.4 -31 7.8 -31 1 C-33.31 1 -35.62 1 -38 1 C-38 0.67 -38 0.34 -38 0 C-33.54210408 -0.19902127 -29.08368537 -0.38210364 -24.625 -0.5625 C-22.74748047 -0.64661133 -22.74748047 -0.64661133 -20.83203125 -0.73242188 C-13.78281236 -1.00922366 -6.99322891 -0.97848067 0 0 Z " fill="#151515" transform="translate(142,24)"/>
<path d="M0 0 C0.66 0 1.32 0 2 0 C2 6.6 2 13.2 2 20 C7.61 20 13.22 20 19 20 C19 20.33 19 20.66 19 21 C13.39 21 7.78 21 2 21 C2 21.99 2 22.98 2 24 C1.34 24 0.68 24 0 24 C0 23.01 0 22.02 0 21 C-2.97 21 -5.94 21 -9 21 C-9 20.67 -9 20.34 -9 20 C-6.03 20 -3.06 20 0 20 C0 13.4 0 6.8 0 0 Z " fill="#5D5C5B" transform="translate(215,46)"/>
<path d="M0 0 C0.66 0 1.32 0 2 0 C2 5.94 2 11.88 2 18 C2.99 18.33 3.98 18.66 5 19 C4.01 19 3.02 19 2 19 C1.67 20.65 1.34 22.3 1 24 C0.67 24 0.34 24 0 24 C0 22.35 0 20.7 0 19 C-4.62 19 -9.24 19 -14 19 C-14 18.67 -14 18.34 -14 18 C-9.38 18 -4.76 18 0 18 C0 12.06 0 6.12 0 0 Z " fill="#727272" transform="translate(236,195)"/>
<path d="M0 0 C0.66 0 1.32 0 2 0 C2 4.95 2 9.9 2 15 C6.62 15 11.24 15 16 15 C16 15.33 16 15.66 16 16 C11.38 16 6.76 16 2 16 C2 17.65 2 19.3 2 21 C1.34 21 0.68 21 0 21 C0 19.35 0 17.7 0 16 C-2.31 16 -4.62 16 -7 16 C-7 15.67 -7 15.34 -7 15 C-4.69 15 -2.38 15 0 15 C0 10.05 0 5.1 0 0 Z " fill="#414141" transform="translate(173,240)"/>
<path d="M0 0 C0.66 0 1.32 0 2 0 C2 1.65 2 3.3 2 5 C8.27 5 14.54 5 21 5 C21.33 3.35 21.66 1.7 22 0 C22.33 0 22.66 0 23 0 C22.67 2.31 22.34 4.62 22 7 C15.4 6.67 8.8 6.34 2 6 C2 6.99 2 7.98 2 9 C1.34 9 0.68 9 0 9 C0 8.01 0 7.02 0 6 C-3.96 6 -7.92 6 -12 6 C-12 5.67 -12 5.34 -12 5 C-8.04 5 -4.08 5 0 5 C0 3.35 0 1.7 0 0 Z " fill="#5E5E5E" transform="translate(215,166)"/>
<path d="M0 0 C9.9 0 19.8 0 30 0 C29.67 4.29 29.34 8.58 29 13 C28.34 13 27.68 13 27 13 C27 9.37 27 5.74 27 2 C18.09 1.67 9.18 1.34 0 1 C0 0.67 0 0.34 0 0 Z " fill="#171413" transform="translate(167,111)"/>
<path d="M0 0 C0.33 0 0.66 0 1 0 C1 7.26 1 14.52 1 22 C2.98 22 4.96 22 7 22 C7 22.33 7 22.66 7 23 C5.02 23 3.04 23 1 23 C1 23.66 1 24.32 1 25 C0.34 25 -0.32 25 -1 25 C-1 24.34 -1 23.68 -1 23 C-1.99 22.67 -2.98 22.34 -4 22 C-3.01 22 -2.02 22 -1 22 C-1.00523682 21.44014404 -1.01047363 20.88028809 -1.01586914 20.3034668 C-1.03666691 17.76482263 -1.04966904 15.22619641 -1.0625 12.6875 C-1.07087891 11.80642578 -1.07925781 10.92535156 -1.08789062 10.01757812 C-1.09111328 9.17001953 -1.09433594 8.32246094 -1.09765625 7.44921875 C-1.10289307 6.66893311 -1.10812988 5.88864746 -1.11352539 5.0847168 C-1 3 -1 3 0 0 Z " fill="#2F3130" transform="translate(258,86)"/>
<path d="M0 0 C0.66 0 1.32 0 2 0 C2 2.31 2 4.62 2 7 C4.31 7 6.62 7 9 7 C9 7.33 9 7.66 9 8 C6.69 8 4.38 8 2 8 C2 9.65 2 11.3 2 13 C1.34 13 0.68 13 0 13 C0 11.35 0 9.7 0 8 C-5.61 8 -11.22 8 -17 8 C-17 7.67 -17 7.34 -17 7 C-11.39 7 -5.78 7 0 7 C0 4.69 0 2.38 0 0 Z " fill="#565555" transform="translate(173,227)"/>
<path d="M0 0 C0.66 0 1.32 0 2 0 C3.41030314 6.73811499 2.66561666 13.19022959 2 20 C1.34 20 0.68 20 0 20 C0 15.71 0 11.42 0 7 C-1.98 7 -3.96 7 -6 7 C-6 6.67 -6 6.34 -6 6 C-4.02 6 -2.04 6 0 6 C0 4.02 0 2.04 0 0 Z " fill="#5E5E5F" transform="translate(194,144)"/>
<path d="M0 0 C0.33 0.66 0.66 1.32 1 2 C11.395 1.505 11.395 1.505 22 1 C22 3.64 22 6.28 22 9 C21.67 9 21.34 9 21 9 C21 7.02 21 5.04 21 3 C14.4 3 7.8 3 1 3 C1 6.3 1 9.6 1 13 C0.67 13 0.34 13 0 13 C0 9.7 0 6.4 0 3 C-1.32 2.67 -2.64 2.34 -4 2 C-2.68 2 -1.36 2 0 2 C0 1.34 0 0.68 0 0 Z " fill="#1C1A1B" transform="translate(111,148)"/>
<path d="M0 0 C0.33 0 0.66 0 1 0 C1 1.98 1 3.96 1 6 C1.66 6.33 2.32 6.66 3 7 C2.34 7 1.68 7 1 7 C1 12.28 1 17.56 1 23 C0.67 23 0.34 23 0 23 C0 17.72 0 12.44 0 7 C-5.94 7 -11.88 7 -18 7 C-18 6.67 -18 6.34 -18 6 C-12.06 6 -6.12 6 0 6 C0 4.02 0 2.04 0 0 Z " fill="#303030" transform="translate(69,228)"/>
<path d="M0 0 C0.66 0.33 1.32 0.66 2 1 C2 2.98 2 4.96 2 7 C2.66 7.33 3.32 7.66 4 8 C3.34 8 2.68 8 2 8 C2 9.65 2 11.3 2 13 C1.34 13 0.68 13 0 13 C0 11.35 0 9.7 0 8 C-5.28 8 -10.56 8 -16 8 C-16 7.67 -16 7.34 -16 7 C-10.72 7 -5.44 7 0 7 C0 4.69 0 2.38 0 0 Z " fill="#414141" transform="translate(152,227)"/>
<path d="M0 0 C0.33 0.66 0.66 1.32 1 2 C4.63 2 8.26 2 12 2 C12 2.33 12 2.66 12 3 C8.37 3 4.74 3 1 3 C1 6.3 1 9.6 1 13 C0.67 13 0.34 13 0 13 C0 9.7 0 6.4 0 3 C-5.28 3 -10.56 3 -16 3 C-16 2.67 -16 2.34 -16 2 C-10.72 2 -5.44 2 0 2 C0 1.34 0 0.68 0 0 Z " fill="#242324" transform="translate(132,190)"/>
<path d="M0 0 C0.33 0.99 0.66 1.98 1 3 C3.31 3 5.62 3 8 3 C8 3.33 8 3.66 8 4 C5.69 4 3.38 4 1 4 C1 4.99 1 5.98 1 7 C0.34 7 -0.32 7 -1 7 C-1 6.01 -1 5.02 -1 4 C-6.94 4 -12.88 4 -19 4 C-19 3.67 -19 3.34 -19 3 C-13.06 3 -7.12 3 -1 3 C-0.67 2.01 -0.34 1.02 0 0 Z " fill="#242121" transform="translate(153,84)"/>
<path d="M0 0 C0.33 1.32 0.66 2.64 1 4 C6.61 4 12.22 4 18 4 C18 4.33 18 4.66 18 5 C12.39 5 6.78 5 1 5 C0.67 6.32 0.34 7.64 0 9 C0 7.68 0 6.36 0 5 C-3.63 5 -7.26 5 -11 5 C-11 4.67 -11 4.34 -11 4 C-7.37 4 -3.74 4 0 4 C0 2.68 0 1.36 0 0 Z " fill="#262624" transform="translate(48,146)"/>
<path d="M0 0 C0.66 0 1.32 0 2 0 C2 2.64 2 5.28 2 8 C3.32 8.33 4.64 8.66 6 9 C4.68 9 3.36 9 2 9 C2 10.32 2 11.64 2 13 C1.34 13 0.68 13 0 13 C-1.29676812 8.38926889 -0.71109139 4.66159911 0 0 Z " fill="#32312F" transform="translate(215,226)"/>
<path d="M0 0 C-0.99 0.33 -1.98 0.66 -3 1 C-3.33 2.65 -3.66 4.3 -4 6 C-4.33 6 -4.66 6 -5 6 C-5 4.35 -5 2.7 -5 1 C-9.62 1 -14.24 1 -19 1 C-19 0.67 -19 0.34 -19 0 C-16.77156512 -0.19600577 -14.54220107 -0.38146569 -12.3125 -0.5625 C-10.45044922 -0.71912109 -10.45044922 -0.71912109 -8.55078125 -0.87890625 C-5.44164467 -0.98493841 -2.99189028 -0.77228525 0 0 Z " fill="#5D5D5D" transform="translate(241,213)"/>
<path d="M0 0 C0.66 0 1.32 0 2 0 C2 0.66 2 1.32 2 2 C5.96 2 9.92 2 14 2 C14 2.33 14 2.66 14 3 C13.15695313 3.06058594 12.31390625 3.12117188 11.4453125 3.18359375 C10.34960938 3.26738281 9.25390625 3.35117187 8.125 3.4375 C7.03445312 3.51871094 5.94390625 3.59992187 4.8203125 3.68359375 C2.05271029 3.83001703 2.05271029 3.83001703 0 5 C0 4.34 0 3.68 0 3 C-2.64 3 -5.28 3 -8 3 C-8 2.67 -8 2.34 -8 2 C-5.36 2 -2.72 2 0 2 C0 1.34 0 0.68 0 0 Z " fill="#2E2E2E" transform="translate(173,22)"/>
<path d="M0 0 C0.66 0 1.32 0 2 0 C2 1.65 2 3.3 2 5 C4.64 5 7.28 5 10 5 C10 5.33 10 5.66 10 6 C8.58566794 6.2236337 7.16832382 6.42826476 5.75 6.625 C4.96109375 6.74101562 4.1721875 6.85703125 3.359375 6.9765625 C0.67847541 7.00319395 -0.72694089 6.36592084 -3 5 C-2.01 5 -1.02 5 0 5 C0 3.35 0 1.7 0 0 Z " fill="#4D4C4C" transform="translate(194,124)"/>
<path d="M0 0 C0.66 0 1.32 0 2 0 C2 0.99 2 1.98 2 3 C3.32 2.67 4.64 2.34 6 2 C5.67 2.66 5.34 3.32 5 4 C4.01 4 3.02 4 2 4 C1.67 5.32 1.34 6.64 1 8 C0.67 8 0.34 8 0 8 C-1.125 2.25 -1.125 2.25 0 0 Z " fill="#0B0A08" transform="translate(68,210)"/>
<path d="M0 0 C0.33 0.66 0.66 1.32 1 2 C3.02463255 2.65213292 3.02463255 2.65213292 5 3 C3.68 3 2.36 3 1 3 C1 6.3 1 9.6 1 13 C0.67 13 0.34 13 0 13 C0 9.7 0 6.4 0 3 C-1.32 2.67 -2.64 2.34 -4 2 C-2.68 2 -1.36 2 0 2 C0 1.34 0 0.68 0 0 Z " fill="#2C2C2C" transform="translate(111,148)"/>
<path d="M0 0 C0.33 0.66 0.66 1.32 1 2 C3.64 2 6.28 2 9 2 C9 2.33 9 2.66 9 3 C6.36 3 3.72 3 1 3 C0.67 3.99 0.34 4.98 0 6 C-1.125 2.25 -1.125 2.25 0 0 Z " fill="#1A1819" transform="translate(153,106)"/>
</svg>
